<?xml version="1.0" encoding="UTF-8" standalone="no"?>
<!-- Created with Inkscape (http://www.inkscape.org/) -->

<svg
   width="11.321091mm"
   height="12.550365mm"
   viewBox="0 0 11.321091 12.550365"
   version="1.1"
   id="svg1"
   xmlns:inkscape="http://www.inkscape.org/namespaces/inkscape"
   xmlns:sodipodi="http://sodipodi.sourceforge.net/DTD/sodipodi-0.dtd"
   xmlns="http://www.w3.org/2000/svg"
   xmlns:svg="http://www.w3.org/2000/svg">
  <sodipodi:namedview
     id="namedview1"
     pagecolor="#505050"
     bordercolor="#eeeeee"
     borderopacity="1"
     inkscape:showpageshadow="0"
     inkscape:pageopacity="0"
     inkscape:pagecheckerboard="0"
     inkscape:deskcolor="#505050"
     inkscape:document-units="mm" />
  <defs
     id="defs1" />
  <g
     inkscape:label="Στρώση 1"
     inkscape:groupmode="layer"
     id="layer1"
     transform="translate(-59.5142,-105.78424)">
    <path
       id="text1"
       style="font-size:13.3204px;font-family:'Iosevka Custom';-inkscape-font-specification:'Iosevka Custom';fill:#800080;stroke:#b8a1c7;stroke-width:1.449;stroke-linecap:round;stroke-linejoin:round;stroke-opacity:1"
       d="m 62.662842,106.50874 c -1.616207,4.10268 -2.424142,7.03798 -2.424142,8.80515 v 0.98547 h 1.065568 v -0.98547 c 0,-0.44401 0.04856,-0.97269 0.146245,-1.58543 h 3.309875 l 0.777214,-2.48564 c -0.398171,-1.35236 -0.951819,-2.93022 -1.662431,-4.73408 z m 0.612882,0.786 c 0.763703,2.18455 1.305018,4.00937 1.624707,5.4746 h -3.263366 c 0.319689,-1.46523 0.866077,-3.29005 1.638659,-5.4746 z"
       inkscape:export-filename="font_size.svg"
       inkscape:export-xdpi="96"
       inkscape:export-ydpi="96" />
    <path
       d="m 65.753275,117.79197 v -0.73828 q 0,-1.98535 1.815752,-6.59457 h 0.907876 q 1.815752,4.60922 1.815752,6.59457 v 0.73828 h -0.798133 v -0.73828 q 0,-0.49883 -0.109743,-1.18722 h -2.723628 q -0.109743,0.68839 -0.109743,1.18722 v 0.73828 z m 1.047549,-2.64382 h 2.444282 q -0.35916,-1.64615 -1.217153,-4.10041 -0.867969,2.45426 -1.227129,4.10041 z"
       id="text1-7"
       style="font-size:13.3204px;font-family:'Iosevka Custom';-inkscape-font-specification:'Iosevka Custom';fill:#800080;stroke:#b8a1c7;stroke-width:1.08527;stroke-linecap:round;stroke-linejoin:round;stroke-opacity:1"
       aria-label="A" />
  </g>
</svg>
