<?xml version="1.0" encoding="UTF-8" standalone="no"?>
<!-- Created with Inkscape (http://www.inkscape.org/) -->

<svg
   width="17.576284mm"
   height="17.086109mm"
   viewBox="0 0 17.576284 17.086109"
   version="1.1"
   id="svg1"
   inkscape:export-filename="uk.svg"
   inkscape:export-xdpi="96"
   inkscape:export-ydpi="96"
   xmlns:inkscape="http://www.inkscape.org/namespaces/inkscape"
   xmlns:sodipodi="http://sodipodi.sourceforge.net/DTD/sodipodi-0.dtd"
   xmlns="http://www.w3.org/2000/svg"
   xmlns:svg="http://www.w3.org/2000/svg">
  <sodipodi:namedview
     id="namedview1"
     pagecolor="#505050"
     bordercolor="#eeeeee"
     borderopacity="1"
     inkscape:showpageshadow="0"
     inkscape:pageopacity="0"
     inkscape:pagecheckerboard="0"
     inkscape:deskcolor="#505050"
     inkscape:document-units="mm" />
  <defs
     id="defs1" />
  <g
     inkscape:label="Στρώση 1"
     inkscape:groupmode="layer"
     id="layer1"
     transform="translate(-97.045626,-83.594244)">
    <path
       id="path17"
       style="font-style:normal;font-variant:normal;font-weight:normal;font-stretch:normal;font-size:23.4065px;line-height:0;font-family:'Fairfax HD';-inkscape-font-specification:'Fairfax HD';fill:#ad86e1;fill-opacity:1;stroke:#ad86e1;stroke-width:1.40655;stroke-linecap:round;stroke-linejoin:round;stroke-dasharray:none;stroke-opacity:1"
       d="m 89.76157,96.848627 c -1.196331,0 -2.301585,0.708608 -3.315866,2.126001 -0.910252,1.274352 -1.365436,2.516072 -1.365436,3.725402 v 7.80207 h 1.560434 v -6.04635 h 4.95403 c 0.0035,-0.005 0.0068,-0.01 0.01033,-0.0143 0.05451,-0.0706 0.109333,-0.13855 0.164445,-0.20446 0.05511,-0.0659 0.110526,-0.12959 0.166243,-0.19079 0.05572,-0.0612 0.111718,-0.12003 0.16804,-0.17652 0.05632,-0.0565 0.113359,-0.11047 0.170286,-0.16226 0.05693,-0.0518 0.114103,-0.10151 0.171634,-0.14859 0.05753,-0.0471 0.115296,-0.0914 0.173432,-0.13373 0.05814,-0.0424 0.116488,-0.0824 0.175229,-0.12006 0.05874,-0.0377 0.11768,-0.0734 0.177025,-0.10639 0.05935,-0.0329 0.119323,-0.0633 0.179273,-0.0915 0.05995,-0.0282 0.120065,-0.0543 0.18062,-0.0779 0.06055,-0.0235 0.121258,-0.0448 0.182418,-0.0636 0.06116,-0.0188 0.1229,-0.0352 0.184664,-0.0493 0.06176,-0.0141 0.123643,-0.0256 0.186012,-0.0351 0.06237,-0.009 0.124835,-0.0167 0.187809,-0.0214 0.06297,-0.005 0.126477,-0.007 0.190056,-0.007 0.06056,0 0.120606,0.002 0.18062,0.007 v -0.15929 c 0,-1.20933 -0.455184,-2.45105 -1.365436,-3.725402 -1.01428,-1.417393 -2.119535,-2.126001 -3.315866,-2.126001 z m 0,1.560177 c 0.65018,0 1.333181,0.494042 2.048379,1.482316 0.715198,1.01428 1.072489,1.95067 1.072489,2.80891 v 0.19495 h -6.241736 v -0.19495 c 0,-0.85824 0.357741,-1.79463 1.072939,-2.80891 0.715198,-0.988274 1.397749,-1.482316 2.047929,-1.482316 z"
       transform="scale(1.1501432,0.86945696)" />
    <path
       d="m 106.95589,92.375662 q 1.35483,-1.431231 2.95282,-1.431231 1.598,0 2.95283,1.431231 1.21586,1.286796 1.21586,2.507942 v 5.252236 h -1.38956 v -4.070481 h -5.55825 v 4.070481 h -1.38956 v -5.252236 q 0,-1.221146 1.21586,-2.507942 z m 0.1737,2.639252 h 5.55825 v -0.13131 q 0,-0.866615 -0.95533,-1.890809 -0.95532,-0.997924 -1.8238,-0.997924 -0.86847,0 -1.82379,0.997924 -0.95533,1.024194 -0.95533,1.890809 z"
       id="text1-9-6-9-9-7-5"
       style="font-size:19.9028px;line-height:0;font-family:'Fairfax HD';-inkscape-font-specification:'Fairfax HD';fill:#ad86e1;stroke:#ad86e1;stroke-width:1.08903;stroke-linecap:round;stroke-linejoin:round"
       aria-label="A" />
  </g>
</svg>
