<?xml version="1.0" encoding="UTF-8" standalone="no"?>
<!-- Created with Inkscape (http://www.inkscape.org/) -->

<svg
   width="58.949364mm"
   height="60.979919mm"
   viewBox="0 0 58.949364 60.979919"
   version="1.1"
   id="svg1"
   xmlns:inkscape="http://www.inkscape.org/namespaces/inkscape"
   xmlns:sodipodi="http://sodipodi.sourceforge.net/DTD/sodipodi-0.dtd"
   xmlns="http://www.w3.org/2000/svg"
   xmlns:svg="http://www.w3.org/2000/svg">
  <sodipodi:namedview
     id="namedview1"
     pagecolor="#505050"
     bordercolor="#eeeeee"
     borderopacity="1"
     inkscape:showpageshadow="0"
     inkscape:pageopacity="0"
     inkscape:pagecheckerboard="0"
     inkscape:deskcolor="#505050"
     inkscape:document-units="mm" />
  <defs
     id="defs1" />
  <g
     inkscape:label="Στρώση 1"
     inkscape:groupmode="layer"
     id="layer1"
     transform="translate(-42.300759,-207.76715)">
    <path
       id="path6"
       style="fill:#8a6aaa;fill-opacity:1;stroke-width:0.376999;stroke-linecap:round;stroke-linejoin:round"
       d="m 63.142484,208.04255 c -1.587526,0.45704 -9.828079,19.85562 -17.305978,51.63669 l 11.786915,-0.28068 c 0.461634,-7.95693 5.540744,-15.2779 8.574407,-15.9815 0,0 9.933839,-2.59257 11.39211,-1.59741 4.334084,2.95768 7.234944,17.77735 7.234944,17.77735 l 14.155208,0.0661 C 89.392971,249.023 80.540886,210.31961 78.025257,209.65684 72.888471,208.30348 64.73001,207.58547 63.142484,208.04251 Z m 5.312848,6.64413 c 2.150396,-0.51493 4.075948,0.43025 5.114507,1.28064 0.862014,0.70583 3.765472,15.51642 3.099731,16.66952 -0.509953,0.88326 -11.180977,3.6138 -11.941673,2.8531 -0.77923,-0.77923 2.296162,-20.46053 3.727435,-20.80326 z"
       sodipodi:nodetypes="sccssccszssssss"
       inkscape:export-filename="font_size_icon.svg"
       inkscape:export-xdpi="40.591389"
       inkscape:export-ydpi="40.591389" />
    <path
       id="path6-5"
       style="fill:#b28ada;fill-opacity:1;stroke-width:0.376999;stroke-linecap:round;stroke-linejoin:round"
       d="m 59.606739,207.90478 c -1.587526,0.45704 -9.828079,19.85562 -17.305978,51.63669 l 11.786915,-0.28068 c 0.461634,-7.95693 5.540744,-15.2779 8.574407,-15.9815 0,0 9.933839,-2.59257 11.39211,-1.59741 4.334084,2.95768 7.234944,17.77735 7.234944,17.77735 l 14.155208,0.0661 C 85.857226,248.88523 77.005141,210.18184 74.489512,209.51907 69.352726,208.16571 61.194265,207.4477 59.606739,207.90474 Z m 5.312848,6.64413 c 2.150396,-0.51493 4.075948,0.43025 5.114507,1.28064 0.862014,0.70583 3.765472,15.51642 3.099731,16.66952 -0.509953,0.88326 -11.180977,3.6138 -11.941673,2.8531 -0.77923,-0.77923 2.296162,-20.46053 3.727435,-20.80326 z"
       sodipodi:nodetypes="sccssccszssssss" />
    <path
       style="fill:#a96aad;fill-opacity:1;stroke-width:0.494761;stroke-linecap:round;stroke-linejoin:round"
       d="m 70.525251,215.5477 c 10.383629,4.34436 11.469521,17.82126 11.469521,17.82126 l 8.992366,4.13998 c 0,0 1.685857,-1.11408 2.136843,-1.395 -1.103777,-3.80477 -7.331187,-17.54754 -19.688843,-21.51342 l 6.117199,1.33508 -0.0072,-1.54834 -10.236733,-2.48838 -3.33527,1.57752 0.150916,1.9863 z"
       id="path7-9-5"
       sodipodi:nodetypes="ccccccccccc" />
    <path
       style="fill:#a168a5;fill-opacity:1;stroke-width:0.423274;stroke-linecap:round;stroke-linejoin:round"
       d="m 65.151879,259.57709 c -2.648554,-2.42134 -8.654057,-21.46794 -8.654057,-21.46794 l -6.252951,0.65132 -1.805968,1.63565 c 0,0 2.2535,9.89438 10.281382,17.48349 l -5.355212,0.34211 -0.329156,3.34659 16.865353,2.54662 0.552108,-3.17713 -1.613104,-3.54864 z"
       id="path7-8"
       sodipodi:nodetypes="ccccccccccc" />
    <path
       style="fill:#bc67c2;fill-opacity:1;stroke-width:0.423274;stroke-linecap:round;stroke-linejoin:round"
       d="M 66.681251,253.70317 C 64.032696,251.28182 57.63301,237.11369 57.63301,237.11369 l -7.401946,1.66037 c 0,0 2.428691,9.98388 10.456574,17.57302 l -7.261103,1.89844 17.040546,2.68087 1.391702,-9.32164 z"
       id="path7"
       sodipodi:nodetypes="cccccccc" />
    <path
       style="fill:#bc67c2;fill-opacity:1;stroke-width:0.494761;stroke-linecap:round;stroke-linejoin:round"
       d="m 70.18545,213.74424 c 12.527048,4.34436 14.620644,18.4791 14.620644,18.4791 l 8.31873,3.90848 c 0,0 -3.932259,-17.43551 -18.409373,-22.08159 l 4.848704,0.34289 -10.228564,-2.52534 -3.462279,1.58943 z"
       id="path7-9"
       sodipodi:nodetypes="cccccccc" />
    <path
       id="path6-1"
       style="fill:#874b8a;fill-opacity:1;stroke-width:0.237055;stroke-linecap:round;stroke-linejoin:round"
       d="m 88.145007,236.27827 c 0.998225,0.28737 6.179827,12.48507 10.88188,32.46879 l -7.411532,-0.1765 c -0.290271,-5.00326 -3.48398,-9.60664 -5.391528,-10.04905 0,0 -6.246327,-1.63019 -7.163278,-1.00445 -2.725243,1.85977 -4.549283,11.17829 -4.549283,11.17829 l -8.900697,0.0416 c 6.028315,-6.69041 11.594444,-31.02684 13.176254,-31.44358 3.229976,-0.85099 8.359959,-1.30246 9.358184,-1.01507 z m -3.340682,4.17777 c -1.352154,-0.32378 -2.562928,0.27055 -3.215966,0.80526 -0.542028,0.44382 -2.367703,9.75662 -1.949089,10.48168 0.320655,0.5554 7.03052,2.27233 7.50884,1.79401 0.489975,-0.48997 -1.44381,-12.86544 -2.343785,-13.08095 z"
       sodipodi:nodetypes="sccssccszssssss" />
    <path
       id="path6-5-6"
       style="fill:#ab63af;fill-opacity:1;stroke-width:0.237055;stroke-linecap:round;stroke-linejoin:round"
       d="m 90.368259,236.19163 c 0.998225,0.28738 6.17983,12.48508 10.881871,32.46879 l -7.411522,-0.17649 c -0.29027,-5.00325 -3.483982,-9.60663 -5.391528,-10.04904 0,0 -6.24633,-1.6302 -7.16328,-1.00445 -2.725241,1.85976 -4.549281,11.17828 -4.549281,11.17828 l -8.900697,0.0416 c 6.028313,-6.69042 11.594442,-31.02684 13.176254,-31.44359 3.229974,-0.85099 8.359957,-1.30246 9.358183,-1.01507 z m -3.340681,4.17779 c -1.352155,-0.32378 -2.562929,0.27054 -3.215968,0.80525 -0.542028,0.44382 -2.367702,9.75663 -1.949089,10.48168 0.320655,0.55538 7.030522,2.27234 7.508841,1.79401 0.489975,-0.48996 -1.443811,-12.86544 -2.343784,-13.08094 z"
       sodipodi:nodetypes="sccssccszssssss" />
  </g>
</svg>
