<?xml version="1.0" encoding="UTF-8" standalone="no"?>
<!-- Created with Inkscape (http://www.inkscape.org/) -->

<svg
   width="16.462948mm"
   height="18.12504mm"
   viewBox="0 0 16.462948 18.12504"
   version="1.1"
   id="svg1"
   inkscape:export-filename="uk.svg"
   inkscape:export-xdpi="96"
   inkscape:export-ydpi="96"
   xmlns:inkscape="http://www.inkscape.org/namespaces/inkscape"
   xmlns:sodipodi="http://sodipodi.sourceforge.net/DTD/sodipodi-0.dtd"
   xmlns="http://www.w3.org/2000/svg"
   xmlns:svg="http://www.w3.org/2000/svg">
  <sodipodi:namedview
     id="namedview1"
     pagecolor="#505050"
     bordercolor="#eeeeee"
     borderopacity="1"
     inkscape:showpageshadow="0"
     inkscape:pageopacity="0"
     inkscape:pagecheckerboard="0"
     inkscape:deskcolor="#505050"
     inkscape:document-units="mm" />
  <defs
     id="defs1" />
  <g
     inkscape:label="Στρώση 1"
     inkscape:groupmode="layer"
     id="layer1"
     transform="translate(-97.630305,-84.041646)">
    <text
       xml:space="preserve"
       style="font-style:normal;font-variant:normal;font-weight:normal;font-stretch:normal;font-size:17.1038px;line-height:0;font-family:'Fairfax HD';-inkscape-font-specification:'Fairfax HD';fill:#ad86e1;fill-opacity:1;stroke:#ad86e1;stroke-width:1.02781;stroke-linecap:round;stroke-linejoin:round;stroke-dasharray:none;stroke-opacity:1"
       x="91.597267"
       y="116.91525"
       id="text1-9-6-9-9"
       transform="scale(1.1501432,0.86945696)"
       inkscape:export-filename="lang.svg"
       inkscape:export-xdpi="96"
       inkscape:export-ydpi="96"><tspan
         sodipodi:role="line"
         id="tspan1-0-7-3-7"
         style="font-style:normal;font-variant:normal;font-weight:normal;font-stretch:normal;font-family:'Fairfax HD';-inkscape-font-specification:'Fairfax HD';fill:#ad86e1;fill-opacity:1;stroke:#ad86e1;stroke-width:1.02781;stroke-dasharray:none;stroke-opacity:1"
         x="91.597267"
         y="116.91525"></tspan></text>
    <path
       id="path5"
       style="font-size:22.0068px;line-height:0;font-family:'Fairfax HD';-inkscape-font-specification:'Fairfax HD';fill:#ad86e1;stroke:#ad86e1;stroke-width:1.63054;stroke-linecap:round;stroke-linejoin:round"
       d="m 103.23881,84.856952 c -1.22495,0 -2.35672,0.548475 -3.395275,1.645607 -0.932034,0.986404 -1.397958,1.947975 -1.397958,2.884057 v 6.039123 h 1.597743 v -4.680263 h 4.97277 v -0.402895 l 1.24263,0.402895 h 0.17559 v 0.05697 l 1.59774,0.517758 v -1.933622 c 0,-0.936082 -0.46592,-1.897653 -1.39796,-2.884057 -1.03855,-1.097132 -2.17032,-1.645607 -3.39528,-1.645607 z m 0,1.207829 c 0.66574,0 1.36463,0.382437 2.09694,1.147413 0.73231,0.785093 1.09856,1.510112 1.09856,2.174422 v 0.15103 h -6.39099 v -0.15103 c 0,-0.66431 0.36625,-1.389329 1.09856,-2.174422 0.73231,-0.764976 1.4312,-1.147413 2.09693,-1.147413 z"
       inkscape:export-filename="lang.svg"
       inkscape:export-xdpi="96"
       inkscape:export-ydpi="96" />
  </g>
</svg>
