<?xml version="1.0" encoding="UTF-8" standalone="no"?>
<!-- Created with Inkscape (http://www.inkscape.org/) -->

<svg
   width="26.89826mm"
   height="9.3249559mm"
   viewBox="0 0 26.89826 9.3249559"
   version="1.1"
   id="svg1"
   sodipodi:docname="logo2_dark.svg"
   inkscape:version="1.3 (0e150ed6c4, 2023-07-21)"
   xmlns:inkscape="http://www.inkscape.org/namespaces/inkscape"
   xmlns:sodipodi="http://sodipodi.sourceforge.net/DTD/sodipodi-0.dtd"
   xmlns="http://www.w3.org/2000/svg"
   xmlns:svg="http://www.w3.org/2000/svg">
  <sodipodi:namedview
     id="namedview1"
     pagecolor="#505050"
     bordercolor="#eeeeee"
     borderopacity="1"
     inkscape:showpageshadow="0"
     inkscape:pageopacity="0"
     inkscape:pagecheckerboard="0"
     inkscape:deskcolor="#d1d1d1"
     inkscape:document-units="mm"
     showguides="false"
     inkscape:zoom="16"
     inkscape:cx="80.65625"
     inkscape:cy="-1.65625"
     inkscape:window-width="2560"
     inkscape:window-height="1369"
     inkscape:window-x="1912"
     inkscape:window-y="-8"
     inkscape:window-maximized="1"
     inkscape:current-layer="layer1" />
  <defs
     id="defs1">
    <inkscape:path-effect
       effect="perspective-envelope"
       up_left_point="61.263135,129.45918"
       up_right_point="64.581316,128.37312"
       down_left_point="61.381367,135.90525"
       down_right_point="64.944202,134.8454"
       id="path-effect25"
       is_visible="true"
       lpeversion="1"
       deform_type="perspective"
       horizontal_mirror="false"
       vertical_mirror="false"
       overflow_perspective="false" />
    <inkscape:path-effect
       effect="perspective-envelope"
       up_left_point="59.031863,129.44025"
       up_right_point="60.694658,129.40117"
       down_left_point="58.900839,136.07026"
       down_right_point="60.509361,135.94608"
       id="path-effect24"
       is_visible="true"
       lpeversion="1"
       deform_type="perspective"
       horizontal_mirror="false"
       vertical_mirror="false"
       overflow_perspective="false" />
    <inkscape:path-effect
       effect="perspective-envelope"
       up_left_point="54.174447,129.31879"
       up_right_point="58.222843,129.23274"
       down_left_point="54.124273,136.48036"
       down_right_point="58.570998,136.18151"
       id="path-effect23"
       is_visible="true"
       lpeversion="1"
       deform_type="perspective"
       horizontal_mirror="false"
       vertical_mirror="false"
       overflow_perspective="false" />
    <inkscape:path-effect
       effect="perspective-envelope"
       up_left_point="44.305868,143.69006"
       up_right_point="47.76804,143.65256"
       down_left_point="44.441794,151.13098"
       down_right_point="47.920192,151.13098"
       id="path-effect22"
       is_visible="true"
       lpeversion="1"
       deform_type="perspective"
       horizontal_mirror="false"
       vertical_mirror="false"
       overflow_perspective="false" />
    <inkscape:path-effect
       effect="perspective-envelope"
       up_left_point="42.344127,141.81413"
       up_right_point="43.925661,142.22663"
       down_left_point="41.978961,143.63271"
       down_right_point="43.545279,144.01303"
       id="path-effect21"
       is_visible="true"
       lpeversion="1"
       deform_type="perspective"
       horizontal_mirror="false"
       vertical_mirror="false"
       overflow_perspective="false" />
    <inkscape:path-effect
       effect="perspective-envelope"
       up_left_point="40.103114,142.73022"
       up_right_point="44.784202,143.8597"
       down_left_point="38.894731,150.32188"
       down_right_point="44.090562,151.57812"
       id="path-effect20"
       is_visible="true"
       lpeversion="1"
       deform_type="perspective"
       horizontal_mirror="false"
       vertical_mirror="false"
       overflow_perspective="false" />
    <inkscape:path-effect
       effect="perspective-envelope"
       up_left_point="34.76858,140.90707"
       up_right_point="40.58001,142.89265"
       down_left_point="33.757718,148.01595"
       down_right_point="38.449871,150.23804"
       id="path-effect19"
       is_visible="true"
       lpeversion="1"
       deform_type="perspective"
       horizontal_mirror="false"
       vertical_mirror="false"
       overflow_perspective="false" />
    <inkscape:path-effect
       effect="perspective-envelope"
       up_left_point="54.174447,129.31879"
       up_right_point="58.222843,129.23274"
       down_left_point="54.124273,136.48036"
       down_right_point="58.570998,136.18151"
       id="path-effect23-3"
       is_visible="true"
       lpeversion="1"
       deform_type="perspective"
       horizontal_mirror="false"
       vertical_mirror="false"
       overflow_perspective="false" />
  </defs>
  <g
     inkscape:label="Στρώση 1"
     inkscape:groupmode="layer"
     id="layer1"
     transform="translate(-37.578545,-127.3394)">
    <path
       style="font-size:8.76902px;font-family:&quot;Earth's Mightiest Bold&quot;;-inkscape-font-specification:&quot;Earth's Mightiest Bold, &quot;;fill:#c1c1c1;fill-opacity:1;fill-rule:evenodd;stroke-width:0.249;stroke-linecap:round"
       d="m 60.435321,128.90589 0.328551,-0.15437 c 0.243183,-0.11229 0.419818,-0.19582 0.52962,-0.2505 0.157947,-0.0672 0.308171,-0.13146 0.450644,-0.1926 0.150056,-0.0703 0.300837,-0.13471 0.452367,-0.19334 0.159158,-0.0678 0.330833,-0.13728 0.515097,-0.20857 0.0401,-0.0155 0.100581,-0.0358 0.181486,-0.0609 0.0884,-0.0342 0.161087,-0.0592 0.218043,-0.075 l 0.03624,-0.014 c 0.03222,-0.0124 0.28904,-0.0593 0.316428,-0.0596 l 0.397449,-0.003 c 0.02753,-4.5e-4 -0.389786,0.1446 -0.387188,0.16838 l 0.09643,0.88266 c 0.006,0.0547 -0.03164,0.10061 -0.112817,0.13785 l -1.665629,0.80443 0.02746,0.0274 1.29779,0.56482 c 0.08147,0.0409 0.126086,0.0566 0.133708,0.0472 l 0.03226,0.31071 -0.114868,0.14106 -1.301773,2.99989 v 0 l 2.056018,-0.83309 c 0.07621,-0.0346 0.46065,-0.008 0.427897,0.0577 l -0.534916,1.07695 c -0.03041,0.0612 -0.0302,0.11082 -0.106145,0.14362 l -2.293231,0.99063 c -0.07384,0.0319 -0.768727,0.0645 -0.773561,-0.003 l -0.03353,-1.36496 1.330834,-2.62889 c 0.06437,-0.13461 -0.465272,-0.40789 -1.566093,-0.81164 -0.02526,-0.009 -0.03743,-0.29256 -0.03656,-0.84509 l -0.0022,-0.53284 z"
       id="path17-3"
       sodipodi:nodetypes="cccccsccsssssccccccccccsssscccsccc" />
    <path
       style="font-size:8.76902px;font-family:&quot;Earth's Mightiest Bold&quot;;-inkscape-font-specification:&quot;Earth's Mightiest Bold, &quot;;fill:#ffffff;fill-rule:evenodd;stroke-width:0.249;stroke-linecap:round;fill-opacity:1"
       d="m 61.505247,129.49649 0.336242,-0.13681 c 0.248772,-0.0993 0.42957,-0.17339 0.542105,-0.22219 0.161276,-0.0588 0.314681,-0.11501 0.460183,-0.16854 0.153559,-0.0623 0.30753,-0.11865 0.461943,-0.16919 0.162515,-0.0593 0.337619,-0.11963 0.52539,-0.18109 0.04086,-0.0134 0.102328,-0.0304 0.184446,-0.0512 0.09008,-0.0295 0.163986,-0.0506 0.221699,-0.0634 l 0.03693,-0.0121 c 0.03283,-0.0107 0.06204,-0.0112 0.08762,-0.001 l 0.192435,0.0734 c 0.02573,0.01 0.03927,0.0267 0.04061,0.0506 l 0.0497,0.88652 c 0.0031,0.0549 -0.03691,0.0988 -0.119936,0.1317 l -1.705773,0.71538 0.02597,0.0288 1.266163,0.63255 c 0.0792,0.0451 0.122921,0.0632 0.13103,0.0542 l 0.01581,0.31198 -0.122154,0.1348 -1.458324,2.92698 v 0 l 1.756065,-0.64278 c 0.07793,-0.0305 0.118842,-0.009 0.122704,0.0645 l 0.05159,0.98225 c 0.0036,0.0683 -0.03429,0.11424 -0.113579,0.13782 l -2.99714,0.89157 c -0.0771,0.0229 -0.116248,3.9e-4 -0.117494,-0.0676 l 0.03857,-1.36482 1.46776,-2.55497 c 0.07139,-0.13103 -0.443091,-0.43188 -1.521063,-0.89318 -0.02473,-0.0106 -0.02193,-0.29413 0.0081,-0.84585 l 0.02593,-0.53221 z"
       id="path17"
       inkscape:path-effect="#path-effect25"
       inkscape:original-d="m 62.032078,130.20381 0.272563,-0.0237 q 0.301767,-0.0237 0.438048,-0.0395 0.194689,-0.008 0.369909,-0.0158 0.184953,-0.0158 0.369908,-0.0158 0.194688,-0.008 0.41858,-0.008 0.04867,0 0.146016,0.008 0.107079,0 0.175219,0.008 h 0.02921 q 0.03894,0 0.06814,0.0237 l 0.146017,0.11849 q 0.02921,0.0237 0.02921,0.0553 v 0.77413 q 0,0.0711 -0.09734,0.079 l -1.343349,0.14219 0.01947,0.0316 0.953972,0.86893 q 0.08761,0.0869 0.09734,0.079 v 0.26068 q 0,0 -0.09734,0.079 l -1.187599,1.98274 v 0 l 1.323881,-0.0868 q 0.08761,-0.008 0.08761,0.079 v 0.76624 q 0,0.079 -0.08761,0.079 h -2.238916 q -0.08761,0 -0.08761,-0.079 l 0.04868,-1.05852 q 0,0 1.177865,-1.69836 0.08761,-0.13429 -1.168131,-1.1533 -0.02921,-0.0237 0.01947,-0.72675 l 0.02921,-0.45816 z"
       transform="rotate(-3.0260949,49.187013,136.93109)" />
    <path
       style="font-size:8.76902px;font-family:&quot;Earth's Mightiest Bold&quot;;-inkscape-font-specification:&quot;Earth's Mightiest Bold, &quot;;fill:#c1c1c1;fill-opacity:1;fill-rule:evenodd;stroke-width:0.318935;stroke-linecap:round"
       d="m 58.723404,134.12274 c -0.02938,-0.42508 -0.05762,-0.83212 -0.08455,-1.22084 -0.01936,-0.39834 -0.03852,-0.79501 -0.0577,-1.18994 -0.01147,-0.40456 -0.02351,-0.81768 -0.03603,-1.23947 -0.0044,-0.42464 -0.0065,-0.87942 -0.0065,-1.36471 -0.0043,-0.063 0.03483,-0.0992 0.117334,-0.10863 l 1.409896,-0.15705 c 0.08061,-0.0103 0.433231,0.0158 0.437382,0.0859 0.03166,0.53068 -0.322671,1.07535 -0.314069,1.62339 0.01654,0.54392 0.02106,1.08638 0.01367,1.62759 -0.009,0.1157 -0.01044,0.22349 -0.0044,0.32334 0.0056,0.0931 0.0079,0.19668 0.0068,0.31065 0.0016,0.0265 -1.43e-4,0.0636 -0.0053,0.11114 0.0024,0.0398 0.0044,0.0729 0.0059,0.0992 -0.0048,0.054 -0.0058,0.10416 -0.0029,0.15056 0.0028,0.0462 0.0058,0.0957 0.0092,0.1485 0.0058,0.35789 0.0032,0.70586 -0.0077,1.04409 -0.0036,0.32938 -0.0206,0.63047 -0.05105,0.9036 -0.012,0.0608 -0.04527,0.0958 -0.09988,0.10492 l -0.572968,0.21674 c -0.06342,0.0104 -0.475061,-0.0633 -0.494043,-0.10641 l -0.181469,-0.35638 -0.02661,-0.38406 c -0.0085,-0.006 -0.01344,-0.0179 -0.01481,-0.0375 -0.0014,-0.0198 -0.0028,-0.0395 -0.0042,-0.0593 z"
       id="path16-0"
       sodipodi:nodetypes="ccccccccccsccccccccccccscc" />
    <path
       style="fill:#808080;fill-opacity:1;fill-rule:evenodd;stroke:none;stroke-width:0.249;stroke-linecap:round;stroke-dasharray:none;stroke-opacity:1"
       d="m 61.001062,128.98628 -0.640547,0.0214 0.09732,-0.11692 0.771929,-0.35543 0.902288,-0.39546 0.587918,-0.23393 0.447354,-0.15199 0.282452,-0.0605 0.409801,-9.4e-4 -2.464844,1.06592 z"
       id="path25" />
    <path
       style="font-size:8.76902px;font-family:&quot;Earth's Mightiest Bold&quot;;-inkscape-font-specification:&quot;Earth's Mightiest Bold, &quot;;fill:#ffffff;fill-rule:evenodd;stroke-width:0.318935;stroke-linecap:round;fill-opacity:1"
       d="m 58.992226,134.60943 c -0.0069,-0.42604 -0.01361,-0.834 -0.01998,-1.2236 0.0017,-0.39881 0.0035,-0.79594 0.0052,-1.19133 0.0099,-0.4046 0.01969,-0.81778 0.02945,-1.23964 0.01807,-0.42428 0.03992,-0.87854 0.06557,-1.36315 -9.77e-4,-0.0631 0.04002,-0.0972 0.122905,-0.10229 l 1.352142,-0.0845 c 0.08104,-0.006 0.121736,0.0262 0.122179,0.0965 0.0036,0.53162 -0.0049,1.07129 -0.02519,1.61902 -0.0122,0.54403 -0.03632,1.08598 -0.07227,1.62604 -0.01507,0.11507 -0.02222,0.22263 -0.02147,0.32266 6.84e-4,0.0933 -0.0025,0.19682 -0.0096,0.31057 2.23e-4,0.0266 -0.0035,0.0635 -0.01117,0.11071 3.06e-4,0.0399 5.4e-4,0.073 7.03e-4,0.0994 -0.0076,0.0537 -0.01125,0.10371 -0.01081,0.1502 3.18e-4,0.0463 7.36e-4,0.0959 0.0013,0.14878 -0.01307,0.3577 -0.03403,0.70505 -0.06285,1.04222 -0.02095,0.32874 -0.05385,0.62851 -0.09868,0.89965 -0.01519,0.0601 -0.05027,0.0933 -0.105281,0.0995 l -0.95048,0.10872 c -0.06388,0.007 -0.104187,-0.0108 -0.120868,-0.0549 l -0.162402,-0.36546 -0.0063,-0.38493 c -0.0082,-0.006 -0.01248,-0.0186 -0.01281,-0.0382 -3.24e-4,-0.0198 -6.8e-4,-0.0396 -0.0011,-0.0594 z"
       id="path16"
       inkscape:path-effect="#path-effect24"
       inkscape:original-d="m 59.413695,134.45564 q -0.02344,-0.65967 -0.0447,-1.25745 -0.0093,-0.60859 -0.01841,-1.20684 0.0028,-0.60904 0.0049,-1.23869 0.01434,-0.63012 0.03795,-1.34318 -0.0033,-0.0927 0.118932,-0.0973 l 1.344568,-0.0516 q 0.122223,-0.006 0.125891,0.0985 0.0282,0.79365 0.02083,1.6196 0.0049,0.82548 -0.02695,1.65237 -0.01822,0.17617 -0.01273,0.33076 0.0051,0.14431 -9.49e-4,0.31999 0.0015,0.0413 -0.0083,0.11386 0.0022,0.0619 0.0036,0.10303 -0.0095,0.0827 -0.0068,0.15508 0.0025,0.0721 0.0056,0.1546 -0.0047,0.55751 -0.03487,1.08502 -0.01836,0.51677 -0.07667,0.94216 -0.02115,0.0938 -0.106723,0.097 l -0.977867,0.0375 q -0.09779,0.004 -0.124787,-0.0675 l -0.173188,-0.39587 -0.01429,-0.40199 q -0.01267,-0.01 -0.01377,-0.0407 -0.0011,-0.0309 -0.0023,-0.0619 z"
       transform="rotate(-3.0260949,50.932883,131.87305)" />
    <path
       style="font-size:8.76902px;font-family:&quot;Earth's Mightiest Bold&quot;;-inkscape-font-specification:&quot;Earth's Mightiest Bold, &quot;;fill:#c1c1c1;fill-opacity:1;fill-rule:evenodd;stroke-width:0.311913;stroke-linecap:round"
       d="m 58.136559,129.32849 c 0.04859,0.28163 0.08116,0.49911 0.09746,0.65133 0.02513,0.1526 0.03901,0.25475 0.04159,0.30606 0.0068,0.13503 -0.391018,0.21783 -1.199882,0.24826 l 0.171082,5.13646 c 0.0057,0.17221 -0.01819,0.32069 -0.07196,0.44522 -0.01781,0.0467 -0.09377,0.0897 -0.228118,0.12914 -0.12521,0.0312 -0.333464,0.0605 -0.625427,0.0877 l -0.190497,0.0128 c -0.107804,-5e-4 -0.245339,-0.0104 -0.412682,-0.0297 -0.01966,0.001 -0.03942,-0.005 -0.05928,-0.0191 -0.01986,-0.014 -0.03475,-0.0245 -0.04468,-0.0315 -0.0598,-0.065 -0.09351,-0.44737 -0.101074,-1.13784 l -0.0495,-4.51569 -1.159316,0.0345 c -0.09275,0.003 -0.138935,-0.0291 -0.13847,-0.0955 l 0.0068,-0.97131 c 1.81e-4,-0.0258 0.01405,-0.0487 0.0416,-0.0686 l 0.219415,-0.14926 c 0.02733,-0.0198 0.05915,-0.0301 0.09546,-0.0309 l 0.21751,-0.0143 c 0.02714,-0.007 0.05879,-0.0109 0.09494,-0.0117 l 0.121904,-0.003 0.995107,-0.0212 c 0.07122,-0.002 0.120219,6.4e-4 0.147028,0.006 l 0.06667,-0.001 c 0.12442,0.004 0.24866,0.007 0.372719,0.011 l 0.38372,-0.008 0.486795,-0.0104 c 0.16568,-0.01 0.348242,-0.0232 0.547533,-0.0399 0.06072,-0.001 0.100469,0.0135 0.119303,0.0444 z"
       id="path15-6"
       inkscape:path-effect="#path-effect23-3"
       inkscape:original-d="m 58.367396,129.64699 q 0.04878,0.44528 0.06098,0.68278 0.02439,0.23748 0.02439,0.31664 0,0.2078 -1.109648,0.21769 v 4.85856 q 0,0.2276 -0.07315,0.38591 -0.02439,0.0594 -0.195103,0.099 -0.158522,0.0297 -0.524339,0.0396 -0.02439,0 -0.158521,0 -0.134134,-0.01 -0.34143,-0.0494 -0.02439,0 -0.04878,-0.0198 -0.02439,-0.0198 -0.03659,-0.0297 -0.07316,-0.0891 -0.07316,-0.99941 v -4.25495 h -1.02429 q -0.121934,0 -0.121934,-0.099 v -0.97964 q 0,-0.0396 0.03659,-0.0693 l 0.195102,-0.14841 q 0.03659,-0.0297 0.08536,-0.0297 l 0.195104,-0.01 q 0.03659,-0.01 0.08536,-0.01 0.04878,0 0.109745,0 h 0.90235 q 0.09755,0 0.134135,0.01 h 0.06098 q 0.170715,0.01 0.341429,0.0198 0.170716,0 0.353625,0 0.231683,0 0.451175,0 0.231684,-0.01 0.512145,-0.0297 0.08536,0 0.109746,0.0495 z"
       transform="rotate(-3.0260949,51.454548,134.89176)" />
    <path
       style="font-size:8.76902px;font-family:&quot;Earth's Mightiest Bold&quot;;-inkscape-font-specification:&quot;Earth's Mightiest Bold, &quot;;fill:#ffffff;fill-rule:evenodd;stroke-width:0.311913;stroke-linecap:round;fill-opacity:1"
       d="m 58.136559,129.32849 c 0.04859,0.28163 0.08116,0.49911 0.09746,0.65133 0.02513,0.1526 0.03901,0.25475 0.04159,0.30606 0.0068,0.13503 -0.391018,0.21783 -1.199882,0.24826 l 0.171082,5.13646 c 0.0057,0.17221 -0.01819,0.32069 -0.07196,0.44522 -0.01781,0.0467 -0.09377,0.0897 -0.228118,0.12914 -0.12521,0.0312 -0.333464,0.0605 -0.625427,0.0877 l -0.190497,0.0128 c -0.107804,-5e-4 -0.245339,-0.0104 -0.412682,-0.0297 -0.01966,0.001 -0.03942,-0.005 -0.05928,-0.0191 -0.01986,-0.014 -0.03475,-0.0245 -0.04468,-0.0315 -0.0598,-0.065 -0.09351,-0.44737 -0.101074,-1.13784 l -0.0495,-4.51569 -1.159316,0.0345 c -0.09275,0.003 -0.138935,-0.0291 -0.13847,-0.0955 l 0.0068,-0.97131 c 1.81e-4,-0.0258 0.01405,-0.0487 0.0416,-0.0686 l 0.219415,-0.14926 c 0.02733,-0.0198 0.05915,-0.0301 0.09546,-0.0309 l 0.21751,-0.0143 c 0.02714,-0.007 0.05879,-0.0109 0.09494,-0.0117 l 0.121904,-0.003 0.995107,-0.0212 c 0.07122,-0.002 0.120219,6.4e-4 0.147028,0.006 l 0.06667,-0.001 c 0.12442,0.004 0.24866,0.007 0.372719,0.011 l 0.38372,-0.008 0.486795,-0.0104 c 0.16568,-0.01 0.348242,-0.0232 0.547533,-0.0399 0.06072,-0.001 0.100469,0.0135 0.119303,0.0444 z"
       id="path15"
       inkscape:path-effect="#path-effect23"
       inkscape:original-d="m 58.367396,129.64699 q 0.04878,0.44528 0.06098,0.68278 0.02439,0.23748 0.02439,0.31664 0,0.2078 -1.109648,0.21769 v 4.85856 q 0,0.2276 -0.07315,0.38591 -0.02439,0.0594 -0.195103,0.099 -0.158522,0.0297 -0.524339,0.0396 -0.02439,0 -0.158521,0 -0.134134,-0.01 -0.34143,-0.0494 -0.02439,0 -0.04878,-0.0198 -0.02439,-0.0198 -0.03659,-0.0297 -0.07316,-0.0891 -0.07316,-0.99941 v -4.25495 h -1.02429 q -0.121934,0 -0.121934,-0.099 v -0.97964 q 0,-0.0396 0.03659,-0.0693 l 0.195102,-0.14841 q 0.03659,-0.0297 0.08536,-0.0297 l 0.195104,-0.01 q 0.03659,-0.01 0.08536,-0.01 0.04878,0 0.109745,0 h 0.90235 q 0.09755,0 0.134135,0.01 h 0.06098 q 0.170715,0.01 0.341429,0.0198 0.170716,0 0.353625,0 0.231683,0 0.451175,0 0.231684,-0.01 0.512145,-0.0297 0.08536,0 0.109746,0.0495 z"
       transform="rotate(-3.0260949,50.932883,131.87305)" />
    <path
       style="font-size:8.76902px;font-family:&quot;Earth's Mightiest Bold&quot;;-inkscape-font-specification:&quot;Earth's Mightiest Bold, &quot;;fill:#c1c1c1;fill-opacity:1;fill-rule:evenodd;stroke-width:0.25498;stroke-linecap:round"
       d="m 49.791853,130.03927 c -5.09e-4,-0.007 0.0063,-0.0148 0.02061,-0.0225 0.01427,-0.008 0.02874,-0.0127 0.0435,-0.0136 l 0.0443,-0.003 0.03322,-0.002 c 0.0069,-0.007 0.02139,-0.0122 0.04351,-0.0136 0.0216,-0.009 0.06198,-0.0148 0.12106,-0.0184 l 0.132986,-0.008 c 0.08129,-0.005 0.237294,0.0126 0.342876,0.0346 0.105098,0.0149 0.180561,0.0815 0.226384,0.19985 l -0.01114,6.8e-4 c 0.03584,0.0834 0.102253,0.22904 0.1993,0.4371 0.09709,0.20817 0.202947,0.43376 0.317575,0.6768 0.122113,0.24275 0.236353,0.47895 0.342707,0.70861 0.113314,0.22222 0.118502,0.38788 0.187405,0.51268 l -0.248559,-3.37135 c -0.0052,-0.071 0.04886,-0.10982 0.1156,-0.11403 l 1.326117,-0.0836 c 0.07443,-0.005 0.114313,0.0285 0.119625,0.0996 0.0425,0.56921 0.07545,1.16086 0.09881,1.77498 0.03087,0.61409 0.05455,1.23262 0.07106,1.85558 0.01651,0.62338 0.02504,1.24045 0.02558,1.85117 0.0075,0.60351 0.0091,1.17894 0.0048,1.72621 0.0048,0.0646 -0.02642,0.0989 -0.09372,0.10213 l -0.959777,0.0468 c -0.0522,0.003 -0.08759,-0.0206 -0.106195,-0.0699 l -1.05798,-2.33224 0.293348,2.34457 c 0.009,0.0712 -0.02932,0.10927 -0.103666,0.1132 l -1.191821,0.063 c -0.0741,0.004 -0.113736,-0.0298 -0.118909,-0.10124 -0.07856,-1.08449 -0.140413,-2.14346 -0.185594,-3.17708 -0.03775,-1.03285 -0.06936,-2.08269 -0.09483,-3.1495 z"
       id="path14-5"
       sodipodi:nodetypes="ccscccsscccscccsssscsccssccssssccc" />
    <path
       style="font-size:8.76902px;font-family:&quot;Earth's Mightiest Bold&quot;;-inkscape-font-specification:&quot;Earth's Mightiest Bold, &quot;;fill:#ffffff;fill-rule:evenodd;stroke-width:0.249;stroke-linecap:round;fill-opacity:1"
       d="m 44.552541,144.56946 c -1.35e-4,-0.007 0.0067,-0.0146 0.02058,-0.0216 0.01385,-0.007 0.02776,-0.0113 0.04174,-0.0114 l 0.04195,-4e-4 0.03146,-3e-4 c 0.0069,-0.007 0.0208,-0.0112 0.04175,-0.0114 0.02084,-0.008 0.05924,-0.0116 0.115189,-0.0121 l 0.125928,-0.001 c 0.07698,-7.4e-4 0.164744,0.0128 0.263306,0.0405 0.09846,0.0206 0.166368,0.0917 0.203714,0.21341 l -0.01055,1e-4 c 0.02967,0.0859 0.0851,0.2362 0.166313,0.45099 0.08126,0.2149 0.16992,0.44782 0.265991,0.69878 0.103152,0.25107 0.199197,0.49513 0.288127,0.73217 0.09587,0.22991 0.173223,0.40961 0.232034,0.53901 l -0.06639,-3.40984 c -0.0014,-0.0718 0.0295,-0.10804 0.0927,-0.10872 l 1.255915,-0.0136 c 0.07049,-7.7e-4 0.106479,0.0348 0.107943,0.10677 0.01171,0.57573 0.01329,1.17357 0.0047,1.79353 -0.0015,0.62034 -0.01002,1.24476 -0.02552,1.87327 -0.01552,0.62893 -0.03826,1.25107 -0.06823,1.86639 -0.02306,0.60843 -0.05027,1.18826 -0.08161,1.7394 0.0013,0.0653 -0.02987,0.0979 -0.09356,0.0979 l -0.869205,0 c -0.0494,0 -0.08165,-0.0254 -0.09675,-0.0761 l -0.882266,-2.48113 0.04658,2.44866 c 0.0014,0.0724 -0.03313,0.10853 -0.1035,0.10853 l -1.053876,0 c -0.07014,0 -0.10587,-0.0361 -0.107189,-0.10833 -0.02004,-1.09679 -0.02558,-2.16699 -0.01665,-3.21076 0.01591,-1.04259 0.03846,-2.10198 0.06765,-3.17814 z"
       transform="matrix(1.2197341,-0.06448061,0.05232526,0.98979985,-12.348491,-10.17534)"
       id="path14"
       inkscape:path-effect="#path-effect22"
       inkscape:original-d="m 44.984673,144.61601 q 0,-0.009 0.01754,-0.0175 0.01754,-0.009 0.03508,-0.009 h 0.03508 q 0.01754,0 0.02631,0 0.0088,-0.009 0.03508,-0.009 0.02631,-0.009 0.09646,-0.009 h 0.105229 q 0.09646,0 0.219225,0.0351 0.122766,0.0263 0.166612,0.17538 h -0.0088 q 0.03508,0.10523 0.131535,0.3683 0.09646,0.26307 0.210456,0.56998 0.122767,0.30692 0.227995,0.5963 0.113997,0.28061 0.184149,0.43845 v -2.77101 q 0,-0.0877 0.07892,-0.0877 h 1.043514 q 0.08769,0 0.08769,0.0877 0,0.70152 -0.02631,1.45565 -0.01754,0.75414 -0.05261,1.51704 -0.03508,0.76291 -0.08769,1.50828 -0.04384,0.73659 -0.09646,1.40304 0,0.0789 -0.07892,0.0789 h -0.719059 q -0.06138,0 -0.07892,-0.0614 l -0.692752,-2.00811 v 1.9818 q 0,0.0877 -0.08769,0.0877 h -0.876902 q -0.08769,0 -0.08769,-0.0877 0,-1.33289 0.03508,-2.6044 0.04385,-1.27151 0.105229,-2.58686 z" />
    <path
       style="font-size:8.76902px;font-family:&quot;Earth's Mightiest Bold&quot;;-inkscape-font-specification:&quot;Earth's Mightiest Bold, &quot;;fill:#c1c1c1;fill-opacity:1;fill-rule:evenodd;stroke-width:0.249;stroke-linecap:round"
       d="m 47.708194,136.10159 c -0.01257,-0.0463 -0.03077,-0.12311 -0.05459,-0.23008 -0.01508,-0.1128 -0.02987,-0.22885 -0.0443,-0.34816 -0.01378,-0.12611 -0.02777,-0.24819 -0.04204,-0.36627 -0.0136,-0.12481 -0.02532,-0.22375 -0.03516,-0.29703 l -0.03299,-0.0369 -1.702034,-0.34876 c -0.019,0.0259 -0.03324,0.0454 -0.04274,0.0584 -0.0095,0.0129 -0.0242,0.036 -0.04402,0.0691 l 0.01552,-0.0301 v 0 c -0.0088,0.006 -0.01355,0.0126 -0.01431,0.0194 -0.01906,0.026 -0.03496,0.0598 -0.04769,0.10108 l -0.01797,0.0515 0.01678,-0.0409 c -0.02312,0.0616 -0.05546,0.13285 -0.09706,0.21386 -0.04171,0.0812 -0.08393,0.16617 -0.126672,0.25496 -0.05338,0.10953 -0.106949,0.21942 -0.160697,0.32968 -0.05308,0.10335 -0.09205,0.19049 -0.116826,0.26127 l -0.188238,0.12986 c -0.02696,0.0186 -0.247925,0.0113 -0.280224,0.007 l -1.023665,-0.1576 c -0.08893,-0.0137 -0.129467,-0.0483 -0.12116,-0.10687 0.0021,-0.0146 0.0082,-0.0287 0.01839,-0.0422 l 3.170543,-6.25737 c 0.01907,-0.0401 0.05784,-0.0558 0.116331,-0.0476 l 1.798935,0.2545 c 0.07314,0.0103 0.107501,0.0457 0.103079,0.10612 l -0.06386,0.87372 c -0.0027,0.0373 -0.01941,0.0601 -0.05006,0.0683 -0.02322,0.009 -0.04599,0.0124 -0.06831,0.009 -0.01487,-0.002 -0.189448,-0.007 -0.21126,-0.0164 -0.04317,-0.025 0.06546,-0.0422 0.01345,-0.0495 -0.03715,-0.005 -0.06436,0.007 -0.08171,0.0356 -0.0094,0.0239 -0.0154,0.0514 -0.01788,0.0826 l -0.01044,0.13144 c -0.0015,0.0188 -0.006,0.0276 -0.01348,0.0266 v 0 c 0.01294,0.0273 0.01891,0.0472 0.01792,0.0597 l -0.0023,0.0283 c 0.007,0.008 0.01021,0.0143 0.0097,0.0204 l -0.0014,0.0188 c 0.08031,0.4282 0.161414,0.86512 0.24333,1.311 l 0.538118,2.81723 c 0.09058,0.48265 0.182168,0.97552 0.274815,1.47893 0.0073,0.0159 0.01044,0.0314 0.0097,0.0463 -8.83e-4,0.0148 -0.01409,0.0317 -0.03973,0.0505 -0.01753,0.02 -0.0466,0.0272 -0.08719,0.0214 l -1.24212,-0.17622 c -0.0082,-10e-4 -0.02758,-0.0151 -0.05828,-0.042 -0.02202,-0.0331 -0.05183,-0.071 -0.08942,-0.11377 -0.02947,-0.0416 -0.05889,-0.083 -0.08828,-0.12455 -0.02877,-0.0488 -0.04165,-0.0916 -0.03865,-0.12834 z m -0.48116,-3.66676 c -0.02018,-0.11651 -0.03996,-0.2359 -0.05938,-0.35814 -0.01172,-0.12073 -0.02435,-0.23129 -0.03785,-0.33179 -0.01286,-0.10664 -0.02311,-0.19954 -0.0308,-0.27882 -0.0071,-0.0855 -0.01249,-0.14788 -0.01635,-0.18726 l -0.801292,1.92809 1.013905,0.14366 c -0.0079,-0.001 -0.0101,-0.0186 -0.0071,-0.0525 l 0.01385,-0.15222 c 0.0012,-0.0135 -0.0014,-0.0275 -0.008,-0.0421 l 0.0065,-0.0707 c -9.64e-4,-0.075 -0.0098,-0.15099 -0.02608,-0.22782 l -0.02175,-0.14494 c -0.008,-0.0819 -0.01664,-0.15704 -0.02578,-0.22538 z"
       id="path13-1"
       sodipodi:nodetypes="cccccccsccsccccsccccsssccsssscscscssssscsccccscssccccccccccccsscccccc" />
    <path
       style="font-size:8.76902px;font-family:&quot;Earth's Mightiest Bold&quot;;-inkscape-font-specification:&quot;Earth's Mightiest Bold, &quot;;fill:#c1c1c1;fill-opacity:1;fill-rule:evenodd;stroke-width:0.249;stroke-linecap:round"
       d="m 48.903284,127.52619 c 0.07867,0.0123 0.09961,0.15769 0.08897,0.20914 -0.0027,0.0129 -0.0089,0.0251 -0.01872,0.0369 l -0.421415,0.8152 c -0.0026,0.0127 -0.01232,0.0243 -0.02919,0.0349 -0.0097,0.0116 -0.01882,0.0201 -0.02723,0.0254 l -1.402206,0.40439 c -0.02307,0.003 -0.04185,0.004 -0.05637,0.002 -0.02906,-0.004 -0.05695,-0.0147 -0.08361,-0.0316 -0.0194,-0.0159 -0.06582,-0.14633 -0.05968,-0.17823 0.0012,-0.006 0.03412,0.013 0.04387,0.001 l 0.768073,-1.32133 c 0.02354,-0.0433 0.06449,-0.0604 0.122816,-0.0512 z"
       id="path12-2"
       sodipodi:nodetypes="cscccccscscccc" />
    <path
       style="font-size:8.76902px;font-family:&quot;Earth's Mightiest Bold&quot;;-inkscape-font-specification:&quot;Earth's Mightiest Bold, &quot;;fill:#ffffff;fill-rule:evenodd;stroke-width:0.249;stroke-linecap:round;fill-opacity:1"
       d="m 43.820421,142.19918 c 0.07018,0.0183 0.09923,0.0557 0.08721,0.11211 -0.003,0.0141 -0.0092,0.0273 -0.01859,0.0398 l -0.41786,0.87899 c -0.0029,0.0139 -0.01224,0.0262 -0.02792,0.037 -0.0093,0.0123 -0.01789,0.0212 -0.0257,0.0265 l -1.280614,0.36612 c -0.0209,0.002 -0.03784,0.002 -0.05081,-0.001 -0.02596,-0.006 -0.05053,-0.0196 -0.07371,-0.0399 -0.0167,-0.0187 -0.02153,-0.0456 -0.01449,-0.0806 0.0014,-0.007 0.0068,-0.0169 0.01612,-0.0291 l 0.746324,-1.50694 c 0.02323,-0.0466 0.06089,-0.0632 0.112918,-0.0496 z"
       transform="matrix(1.1085439,-0.0586026,0.04755532,0.89957029,-6.4886796,2.1579485)"
       id="path12"
       inkscape:path-effect="#path-effect21"
       inkscape:original-d="m 43.555326,142.02038 q 0.09646,0 0.09646,0.0702 0,0.0175 -0.0088,0.0351 l -0.201688,0.78045 q 0,0.0175 -0.01754,0.0351 -0.0088,0.0175 -0.01754,0.0263 l -1.043513,0.54368 q -0.02631,0.009 -0.04384,0.009 -0.03508,0 -0.07015,-0.0175 -0.02631,-0.0175 -0.02631,-0.0614 0,-0.009 0.0088,-0.0263 l 0.377068,-1.33289 q 0.01754,-0.0614 0.08769,-0.0614 z" />
    <path
       style="font-size:8.76902px;font-family:&quot;Earth's Mightiest Bold&quot;;-inkscape-font-specification:&quot;Earth's Mightiest Bold, &quot;;fill:#c1c1c1;fill-opacity:1;fill-rule:evenodd;stroke-width:0.249;stroke-linecap:round"
       d="m 40.985909,134.26334 c -0.06525,0.0541 -0.162288,0.0608 -0.291041,0.0204 -0.04993,-0.0157 -0.389378,-0.0683 -0.435987,-0.10001 -0.04659,-0.0317 0.190004,-0.0511 0.127364,-0.11626 -0.03417,-0.0963 -0.05734,-0.17233 -0.06941,-0.22782 -0.01205,-0.0556 -0.0217,-0.10479 -0.02878,-0.14751 l -0.006,-0.089 -0.0016,0.008 c -0.0041,-0.0187 -0.01175,-0.0385 -0.02295,-0.0594 -0.0031,-0.0243 -0.0062,-0.0486 -0.0092,-0.0729 -0.02151,-0.0886 -0.04359,-0.17475 -0.06627,-0.25838 -0.01453,-0.0873 -0.03424,-0.16767 -0.05916,-0.24077 -0.02512,-0.11539 -0.05399,-0.23236 -0.08663,-0.35095 -0.0255,-0.117 -0.05313,-0.22288 -0.0829,-0.31746 l -0.103559,-0.41134 -0.431596,2.60872 c -0.0085,0.0511 -0.394138,-0.009 -0.461367,-0.0304 l -0.839108,-0.31124 c -0.05822,-0.019 -0.0842,-0.0536 -0.07804,-0.10449 0.04932,-0.40684 0.108809,-0.84055 0.178976,-1.30306 0.07972,-0.47935 0.165268,-0.97184 0.256926,-1.47814 0.09448,-0.52181 0.194346,-1.04934 0.299803,-1.58255 0.117197,-0.55475 0.234134,-1.09609 0.350506,-1.62206 0.0028,-0.0215 0.01692,-0.0367 0.04237,-0.0458 0.02642,-0.0163 0.05148,-0.0217 0.07514,-0.0164 l 0.996541,0.22399 c 0.05694,0.0128 0.09004,0.0429 0.09925,0.0901 l 0.917323,3.31457 c 0.0014,-0.006 0.0059,-0.008 0.01373,-0.006 0.0091,-0.004 0.01431,-0.01 0.01557,-0.0155 l -0.0019,0.0101 2.246678,-2.83123 c 0.02929,-0.0413 0.07101,-0.0561 0.125177,-0.0442 l 1.157556,0.25599 c 0.09352,0.0207 0.130461,0.0655 0.11069,0.13425 -0.125315,0.57187 -0.252962,1.16449 -0.38249,1.77534 -0.125508,0.59189 -0.253379,1.17105 -0.383412,1.73766 -0.117777,0.55161 -0.243372,1.08022 -0.376409,1.5867 -0.121249,0.49403 -0.244984,0.95126 -0.37126,1.37379 -0.01574,0.0527 -0.411182,-0.006 -0.487192,-0.0302 l -0.979822,-0.35591 c -0.07296,-0.0235 -0.102982,-0.0614 -0.09015,-0.11368 l 0.649403,-2.64856 -0.05165,0.0544 -0.194492,0.22747 c -0.06576,0.0648 -0.121935,0.1254 -0.168624,0.18199 -0.04507,0.0503 -0.09589,0.10833 -0.15234,0.17364 l -0.146066,0.15365 0.0115,0.003 c -0.02325,0.0303 -0.0567,0.0699 -0.100253,0.1185 -0.03449,0.045 -0.08341,0.10075 -0.146562,0.16701 l 0.0019,-0.009 -0.557511,0.7161 z"
       id="text1-2"
       sodipodi:nodetypes="ccscccccccccccccccccsccccccccccccccsccsccccccccccccccc" />
    <path
       style="font-size:8.76902px;font-family:&quot;Earth's Mightiest Bold&quot;;-inkscape-font-specification:&quot;Earth's Mightiest Bold, &quot;;fill:#ffffff;fill-rule:evenodd;stroke-width:0.249;stroke-linecap:round;fill-opacity:1"
       d="m 42.653224,150.84247 c -0.0091,-0.0521 -0.02183,-0.13827 -0.03817,-0.25825 -0.0082,-0.12592 -0.01599,-0.25544 -0.02329,-0.38855 -0.0064,-0.1406 -0.01318,-0.27675 -0.0204,-0.40848 -0.0063,-0.13916 -0.01214,-0.24952 -0.0175,-0.33133 l -0.02792,-0.0429 -1.514514,-0.48636 c -0.01832,0.0276 -0.03206,0.0484 -0.04122,0.0622 -0.0092,0.0138 -0.02348,0.0385 -0.04288,0.074 l 0.01539,-0.0325 v 0 c -0.0082,0.006 -0.01279,0.0132 -0.0138,0.0207 -0.01838,0.0277 -0.03429,0.0642 -0.04771,0.10926 l -0.01861,0.056 0.01704,-0.0443 c -0.02373,0.0669 -0.05621,0.14402 -0.09748,0.23138 -0.04138,0.0876 -0.0834,0.17929 -0.126076,0.27522 -0.05323,0.11829 -0.106642,0.23696 -0.160236,0.35604 -0.05266,0.11146 -0.09186,0.20577 -0.117518,0.28279 l -0.175509,0.13292 c -0.02514,0.019 -0.05217,0.025 -0.08109,0.0181 l -1.084673,-0.26224 c -0.07954,-0.0192 -0.114169,-0.0611 -0.10391,-0.12557 0.0026,-0.0161 0.0087,-0.0313 0.01855,-0.0457 l 3.149698,-6.75077 c 0.01906,-0.0433 0.05469,-0.0585 0.106913,-0.046 l 1.606166,0.38755 c 0.0653,0.0157 0.09453,0.057 0.08768,0.12368 l -0.099,0.96482 c -0.0042,0.0412 -0.02032,0.0655 -0.04828,0.0728 -0.02133,0.009 -0.04196,0.011 -0.06188,0.006 -0.01328,-0.003 -0.02951,-0.0107 -0.04867,-0.0226 -0.03765,-0.0302 -0.07969,-0.0509 -0.126139,-0.0622 -0.03317,-0.008 -0.05823,0.004 -0.0752,0.0347 -0.0096,0.0259 -0.0163,0.0561 -0.02001,0.0905 l -0.01564,0.14509 c -0.0022,0.0208 -0.0067,0.0303 -0.01339,0.0287 v 0 c 0.01034,0.031 0.01477,0.0534 0.01328,0.0672 l -0.0034,0.0312 c 0.0059,0.009 0.0085,0.0165 0.0078,0.0232 l -0.0022,0.0208 c 0.05188,0.47938 0.104062,0.96848 0.156547,1.46756 l 0.350101,3.15456 c 0.05853,0.54034 0.117482,1.09208 0.176884,1.65556 0.0058,0.0181 0.0079,0.0354 0.0065,0.0519 -0.0015,0.0164 -0.01418,0.0343 -0.03814,0.0537 -0.01672,0.0212 -0.04321,0.0274 -0.07945,0.0186 l -1.108994,-0.26813 c -0.0073,-0.002 -0.02409,-0.0184 -0.05043,-0.05 -0.01823,-0.038 -0.04325,-0.0818 -0.07503,-0.13136 -0.02453,-0.0478 -0.04903,-0.0955 -0.07349,-0.14324 -0.02356,-0.0558 -0.03311,-0.10393 -0.02866,-0.14454 z m -0.258464,-4.09296 c -0.01261,-0.13033 -0.02473,-0.26384 -0.03638,-0.40049 -0.0048,-0.13452 -0.01091,-0.25782 -0.01827,-0.37002 -0.0065,-0.11897 -0.0113,-0.22256 -0.01445,-0.31089 -0.0023,-0.0952 -0.0042,-0.16466 -0.0058,-0.20855 l -0.812509,2.09042 0.905247,0.21867 c -0.007,-0.002 -0.0082,-0.0212 -0.0039,-0.0586 l 0.0197,-0.16793 c 0.0017,-0.0149 2.1e-5,-0.0306 -0.0052,-0.0472 l 0.0092,-0.078 c 0.0027,-0.0832 -0.0016,-0.16795 -0.01263,-0.25408 l -0.01267,-0.16195 c -0.0033,-0.0913 -0.0075,-0.17506 -0.01247,-0.25135 z"
       transform="matrix(1.1085439,-0.0586026,0.04755532,0.89957029,-6.9572342,2.8931039)"
       id="path13"
       inkscape:path-effect="#path-effect20"
       inkscape:original-d="m 43.187027,149.67573 q -0.01754,-0.0526 -0.05261,-0.17538 -0.02631,-0.13153 -0.05262,-0.27184 -0.02631,-0.14907 -0.05261,-0.28938 -0.02631,-0.14907 -0.04384,-0.23676 l -0.02631,-0.0263 -1.262739,-0.0877 q -0.01754,0.0351 -0.02631,0.0526 -0.0088,0.0175 -0.02631,0.0614 l 0.0088,-0.0263 q 0,0 0,0 -0.0088,0.009 -0.0088,0.0175 -0.01754,0.0351 -0.02631,0.0877 -0.0088,0.0438 -0.0088,0.0438 l 0.0088,-0.0351 q -0.01754,0.0789 -0.05261,0.18415 -0.03508,0.10523 -0.07015,0.21923 -0.04384,0.1403 -0.08769,0.2806 -0.04385,0.13154 -0.06138,0.21923 l -0.122766,0.12277 q -0.02631,0.0263 -0.06138,0.0263 H 40.28449 q -0.09646,0 -0.09646,-0.0702 0,-0.0175 0.0088,-0.0351 l 1.78888,-5.81386 q 0.01754,-0.0614 0.08769,-0.0614 h 1.438119 q 0.08769,0 0.08769,0.0877 v 0.83306 q 0,0.0526 -0.03508,0.0701 -0.02631,0.0175 -0.05262,0.0175 -0.01754,0 -0.04384,-0.009 -0.05261,-0.0263 -0.113997,-0.0263 -0.04384,0 -0.06138,0.0438 -0.0088,0.0351 -0.0088,0.0789 v 0.12276 q 0,0.0263 -0.0088,0.0263 0,0 0,0 0.01754,0.0351 0.01754,0.0526 0,0.0175 0,0.0263 0.0088,0.009 0.0088,0.0175 v 0.0175 q 0.131535,0.56999 0.263071,1.14874 l 0.543679,2.32379 q 0.131535,0.56999 0.26307,1.14874 0.0088,0.0175 0.0088,0.0351 0,0.0175 -0.02631,0.0438 -0.01754,0.0263 -0.06138,0.0263 h -0.89444 q -0.0088,0 -0.04385,-0.0263 -0.02631,-0.0351 -0.07015,-0.0789 -0.03508,-0.0438 -0.07015,-0.0877 -0.03508,-0.0526 -0.03508,-0.0965 z m -0.587525,-2.98147 q -0.03508,-0.14907 -0.07015,-0.30691 -0.02631,-0.15784 -0.05261,-0.28938 -0.02631,-0.1403 -0.04385,-0.24553 -0.01754,-0.114 -0.02631,-0.16661 l -0.455989,1.78888 H 42.7135 q -0.0088,0 -0.0088,-0.0438 v -0.13153 q 0,-0.0175 -0.0088,-0.0351 0,-0.0263 0,-0.0614 -0.0088,-0.0965 -0.03508,-0.19292 l -0.02631,-0.12277 q -0.01754,-0.10523 -0.03508,-0.19292 z" />
    <path
       style="font-size:8.76902px;font-family:&quot;Earth's Mightiest Bold&quot;;-inkscape-font-specification:&quot;Earth's Mightiest Bold, &quot;;fill:#ffffff;fill-rule:evenodd;stroke-width:0.249;stroke-linecap:round;fill-opacity:1"
       d="m 36.41041,148.32685 c -0.06127,0.0562 -0.148883,0.058 -0.262782,0.006 -0.04417,-0.0203 -0.08646,-0.0494 -0.126882,-0.0872 -0.0404,-0.0378 -0.08721,-0.0947 -0.14046,-0.17064 -0.02616,-0.1088 -0.04338,-0.19439 -0.05161,-0.25661 -0.0082,-0.0624 -0.01454,-0.11743 -0.01887,-0.16521 l -0.0012,-0.099 -0.0018,0.009 c -0.0028,-0.021 -0.0087,-0.0434 -0.01782,-0.0672 -0.0016,-0.0271 -0.0032,-0.0543 -0.0048,-0.0814 -0.01513,-0.0995 -0.0309,-0.19628 -0.04733,-0.29032 -0.0089,-0.0977 -0.02283,-0.18788 -0.04177,-0.27037 -0.01711,-0.12938 -0.03752,-0.26075 -0.06124,-0.39412 -0.01738,-0.1312 -0.0372,-0.25019 -0.05947,-0.35678 l -0.0736,-0.46205 -0.512309,2.86659 c -0.01005,0.0562 -0.04483,0.0702 -0.104272,0.0421 l -1.049351,-0.49695 c -0.05147,-0.0244 -0.07319,-0.0644 -0.06524,-0.1204 0.06372,-0.44811 0.137855,-0.92541 0.22297,-1.43401 0.09451,-0.52671 0.194886,-1.06764 0.301416,-1.62352 0.109802,-0.57292 0.22473,-1.15186 0.344953,-1.73676 0.131808,-0.6081 0.262744,-1.20135 0.392442,-1.77758 0.0035,-0.0237 0.01697,-0.0397 0.04029,-0.0483 0.02455,-0.0165 0.04735,-0.0211 0.06837,-0.0138 l 0.885807,0.30669 c 0.05061,0.0175 0.07896,0.0528 0.085,0.10566 l 0.667571,3.7281 c 0.0015,-0.007 0.0057,-0.009 0.01262,-0.006 0.0084,-0.004 0.01334,-0.01 0.01475,-0.0163 l -0.0022,0.0106 2.155685,-3.00687 c 0.02831,-0.0441 0.06654,-0.058 0.114706,-0.0416 l 1.029129,0.35162 c 0.08315,0.0284 0.114244,0.0803 0.09319,0.1553 -0.139926,0.6266 -0.282936,1.27607 -0.428505,1.94563 -0.14105,0.64877 -0.283621,1.28331 -0.42754,1.9038 -0.132181,0.60459 -0.270301,1.18321 -0.414063,1.73687 -0.132566,0.54055 -0.265618,1.04016 -0.399305,1.50115 -0.01667,0.0575 -0.05865,0.0703 -0.125864,0.0387 l -1.175455,-0.55275 c -0.06452,-0.0303 -0.08972,-0.074 -0.07569,-0.1313 l 0.710136,-2.89799 -0.04905,0.0573 -0.185776,0.24077 c -0.06224,0.0679 -0.115653,0.13185 -0.160344,0.19186 -0.04294,0.0532 -0.09141,0.11447 -0.145298,0.18356 l -0.138703,0.16176 0.01018,0.004 c -0.02236,0.0322 -0.05433,0.0741 -0.09582,0.1255 -0.03317,0.0478 -0.07982,0.10673 -0.139785,0.17654 l 0.0022,-0.01 -0.535575,0.76116 z"
       transform="matrix(1.1085439,-0.0586026,0.04755532,0.89957029,-6.8906586,2.8726705)"
       id="text1"
       inkscape:path-effect="#path-effect19"
       inkscape:original-d="m 37.741457,149.21974 q -0.06138,0.114 -0.219225,0.114 -0.06138,0 -0.122766,-0.0263 -0.06138,-0.0263 -0.149074,-0.0965 -0.06138,-0.13153 -0.08769,-0.21045 -0.02631,-0.0789 -0.04385,-0.14031 l -0.01754,-0.0877 v 0.009 q -0.0088,-0.0263 -0.02631,-0.0526 -0.0088,-0.0351 -0.01754,-0.0702 -0.04384,-0.12276 -0.08769,-0.23676 -0.03508,-0.12276 -0.07892,-0.21922 -0.05261,-0.15785 -0.113997,-0.31569 -0.05261,-0.15784 -0.105228,-0.28061 l -0.131535,-0.35953 v 2.75347 q 0,0.0877 -0.08769,0.0877 H 35.40012 q -0.07892,0 -0.07892,-0.0877 0,-0.69275 0.01754,-1.44688 0.02631,-0.76291 0.06138,-1.52581 0.03508,-0.76291 0.07892,-1.49951 0.05261,-0.74536 0.105228,-1.41181 0,-0.0263 0.02631,-0.0438 0.02631,-0.0263 0.05262,-0.0263 h 0.727828 q 0.06138,0 0.07892,0.0526 l 1.069821,2.56056 q 0,-0.009 0.0088,-0.009 0.0088,-0.009 0.0088,-0.0175 v 0.009 l 1.061051,-2.72717 q 0.01754,-0.0526 0.07015,-0.0526 h 0.736597 q 0.08769,0 0.08769,0.0789 0.03508,0.65768 0.07892,1.40305 0.04384,0.74536 0.07892,1.50827 0.04384,0.7629 0.06138,1.51704 0.02631,0.75413 0.02631,1.44689 0,0.0877 -0.08769,0.0877 h -1.043514 q -0.08769,0 -0.08769,-0.0877 v -2.72717 l -0.02631,0.0614 -0.09646,0.2543 q -0.05261,0.114 -0.08769,0.21046 -0.03508,0.0877 -0.07892,0.20169 l -0.07892,0.18415 h 0.0088 q -0.01754,0.0526 -0.05261,0.1403 -0.02631,0.0789 -0.07892,0.20169 v -0.009 l -0.298147,0.8769 z" />
  </g>
</svg>
