<?xml version="1.0" encoding="UTF-8" standalone="no"?>
<!-- Created with Inkscape (http://www.inkscape.org/) -->

<svg
   width="113.76771mm"
   height="35.932774mm"
   viewBox="0 0 113.76771 35.932774"
   version="1.1"
   id="svg1"
   sodipodi:docname="mantis.svg"
   xmlns:inkscape="http://www.inkscape.org/namespaces/inkscape"
   xmlns:sodipodi="http://sodipodi.sourceforge.net/DTD/sodipodi-0.dtd"
   xmlns="http://www.w3.org/2000/svg"
   xmlns:svg="http://www.w3.org/2000/svg">
  <sodipodi:namedview
     id="namedview1"
     pagecolor="#505050"
     bordercolor="#eeeeee"
     borderopacity="1"
     inkscape:showpageshadow="0"
     inkscape:pageopacity="0"
     inkscape:pagecheckerboard="0"
     inkscape:deskcolor="#505050"
     inkscape:document-units="mm" />
  <defs
     id="defs1">
    <filter
       inkscape:collect="always"
       style="color-interpolation-filters:sRGB"
       id="filter35"
       x="-1.0026624"
       y="-0.33478485"
       width="3.0053248"
       height="1.6695697">
      <feGaussianBlur
         inkscape:collect="always"
         stdDeviation="1.6537659"
         id="feGaussianBlur35" />
    </filter>
    <filter
       inkscape:collect="always"
       style="color-interpolation-filters:sRGB"
       id="filter36"
       x="-0.38190986"
       y="-0.30735365"
       width="1.7638197"
       height="1.6147073">
      <feGaussianBlur
         inkscape:collect="always"
         stdDeviation="1.6537659"
         id="feGaussianBlur36" />
    </filter>
    <filter
       inkscape:collect="always"
       style="color-interpolation-filters:sRGB"
       id="filter37"
       x="-0.23364859"
       y="-0.28865074"
       width="1.4672972"
       height="1.5773015">
      <feGaussianBlur
         inkscape:collect="always"
         stdDeviation="1.6537659"
         id="feGaussianBlur37" />
    </filter>
    <filter
       inkscape:collect="always"
       style="color-interpolation-filters:sRGB"
       id="filter38"
       x="-0.3154455"
       y="-0.35296565"
       width="1.630891"
       height="1.7059313">
      <feGaussianBlur
         inkscape:collect="always"
         stdDeviation="1.6537659"
         id="feGaussianBlur38" />
    </filter>
    <filter
       inkscape:collect="always"
       style="color-interpolation-filters:sRGB"
       id="filter39"
       x="-0.32286407"
       y="-0.35724049"
       width="1.6457281"
       height="1.714481">
      <feGaussianBlur
         inkscape:collect="always"
         stdDeviation="1.6537659"
         id="feGaussianBlur39" />
    </filter>
    <filter
       inkscape:collect="always"
       style="color-interpolation-filters:sRGB"
       id="filter40"
       x="-1.4161307"
       y="-1.2996329"
       width="3.8322614"
       height="3.5992657">
      <feGaussianBlur
         inkscape:collect="always"
         stdDeviation="1.6537659"
         id="feGaussianBlur40" />
    </filter>
    <filter
       inkscape:collect="always"
       style="color-interpolation-filters:sRGB"
       id="filter41"
       x="-0.27713204"
       y="-0.39122905"
       width="1.5542639"
       height="1.7824571">
      <feGaussianBlur
         inkscape:collect="always"
         stdDeviation="1.6537659"
         id="feGaussianBlur41" />
    </filter>
  </defs>
  <g
     inkscape:label="Στρώση 1"
     inkscape:groupmode="layer"
     id="layer1"
     transform="translate(-13.890336,-78.977835)">
    <path
       d="m 62.228508,103.72545 -2.742959,0.22605 -2.373626,-3.30559 -10.738505,4.33343 -0.204479,0.0691 -2.757706,0.22711 7.639796,-13.118345 2.565995,-0.21136 z m -5.977282,-4.323785 -3.518821,-5.03149 c -0.114703,-0.16466 -0.233409,-0.43367 -0.355973,-0.80673 l -0.05898,0.005 c -0.08484,0.36118 -0.187532,0.64823 -0.30765,0.86139 l -4.86015,9.169745 z"
       id="text2-0-6"
       style="font-size:11.2889px;font-family:'Segoe UI';-inkscape-font-specification:'Segoe UI';opacity:0.373832;fill:#808000;stroke:#000000;stroke-width:2.49187;stroke-linejoin:round;stroke-opacity:1;filter:url(#filter41)"
       aria-label="A"
       sodipodi:nodetypes="cccccccccccccccc" />
    <path
       d="m 55.00947,84.085425 -1.356608,3.75623 -2.180729,-0.0982 1.356616,-3.75625 z"
       id="text16-3-8"
       style="font-size:11.2889px;font-family:'Segoe UI';-inkscape-font-specification:'Segoe UI';opacity:0.373832;fill:#808000;stroke:#000000;stroke-width:2.08067;stroke-linecap:round;stroke-linejoin:round;stroke-opacity:1;filter:url(#filter40)"
       aria-label="'" />
    <path
       d="m 100.07182,91.896035 -6.995775,-0.17106 v 13.369895 l -2.83886,-0.0697 V 91.655275 l -6.978875,-0.1708 v -1.58518 l 16.81351,0.4111 z"
       id="text4-1"
       style="font-size:11.9559px;font-family:'Segoe UI';-inkscape-font-specification:'Segoe UI';opacity:0.373832;fill:#808000;stroke:#000000;stroke-width:2.91888;stroke-linejoin:round;stroke-opacity:1;filter:url(#filter39)"
       aria-label="T" />
    <path
       d="M 80.37686,104.6605 77.412008,104.6061 66.935571,92.673325 q -0.397528,-0.44899 -0.650621,-0.93641 l -0.08636,-0.002 q 0.109311,0.4745 0.09015,2.0252 l -0.131596,10.639285 -2.417935,-0.0443 0.182195,-14.726575 3.137559,0.0574 10.190881,11.742655 q 0.638764,0.73073 0.822566,1.00118 l 0.05756,0.001 q -0.136053,-0.63935 -0.117105,-2.16952 l 0.12834,-10.372285 2.417935,0.0443 z"
       id="text3-0"
       style="font-size:10.9506px;font-family:'Segoe UI';-inkscape-font-specification:'Segoe UI';opacity:0.373832;fill:#808000;stroke:#000000;stroke-width:2.67347;stroke-linejoin:round;stroke-opacity:1;filter:url(#filter38)"
       aria-label="N" />
    <path
       d="m 40.48251,105.4679 -2.429741,0.37683 1.007757,-10.154855 c 0.07961,-0.80225 0.244938,-1.79452 0.495965,-2.97675 l -0.0582,0.0107 c -0.300546,0.71869 -0.55761,1.24019 -0.771235,1.56434 l -8.283616,12.738515 -1.193048,0.18495 -0.0616,-0.10809 -5.90703,-10.336975 c -0.170159,-0.30626 -0.327377,-0.79112 -0.471625,-1.45473 l -0.05821,0.008 c 0.01735,0.59321 -0.04182,1.57589 -0.177979,2.94821 l -1.005668,10.133775 -2.356992,0.3656 1.502212,-15.137355 3.229957,-0.50095 5.354159,9.563015 c 0.414362,0.73257 0.674389,1.28815 0.780074,1.66668 l 0.08721,-0.0107 c 0.499495,-0.89515 0.895587,-1.56632 1.188282,-2.0136 l 7.576046,-11.527045 3.05537,-0.47389 z"
       id="text1-2"
       style="font-size:11.2889px;font-family:'Segoe UI';-inkscape-font-specification:'Segoe UI';opacity:0.373832;fill:#808000;stroke:#000000;stroke-width:2.70386;stroke-linecap:round;stroke-linejoin:round;stroke-opacity:1;filter:url(#filter37)"
       aria-label="M"
       sodipodi:nodetypes="ccscccccccccsccccccccccc" />
    <path
       d="m 122.34339,109.61994 -13.8293,-2.97816 0.0125,-0.78138 6.79393,-5.17222 -5.98053,-7.380265 0.0147,-0.90159 12.33424,2.65618 -0.0256,1.55278 -8.81222,-1.89772 5.35975,6.532785 -6.13642,4.67033 10.29291,2.21661 z"
       id="text6-8"
       style="font-size:11.13px;font-family:'Segoe UI';-inkscape-font-specification:'Segoe UI';opacity:0.373832;fill:#808000;stroke:#000000;stroke-width:2.64332;stroke-linejoin:round;stroke-opacity:1;filter:url(#filter36)"
       aria-label="Σ" />
    <path
       d="m 103.66256,106.43236 -2.34249,-0.43527 2.9871,-15.526565 2.34249,0.43533 z"
       id="text5-63"
       style="font-size:11.2889px;font-family:'Segoe UI';-inkscape-font-specification:'Segoe UI';opacity:0.373832;fill:#808000;stroke:#000000;stroke-width:2.74953;stroke-linejoin:round;stroke-opacity:1;filter:url(#filter35)"
       inkscape:transform-center-x="-0.1832369"
       inkscape:transform-center-y="0.72328802"
       aria-label="Ι" />
    <path
       d="m 43.077722,104.87556 -2.429744,0.37686 1.007758,-10.154893 c 0.07961,-0.80225 0.244937,-1.79447 0.495967,-2.97675 l -0.05821,0.0107 c -0.300546,0.71875 -0.557608,1.24016 -0.771233,1.56431 l -8.283618,12.738533 -1.193046,0.18494 -0.0616,-0.10808 -5.907029,-10.336983 c -0.170159,-0.30579 -0.327378,-0.7907 -0.471631,-1.45433 l -0.05821,0.0107 c 0.01735,0.59321 -0.04182,1.57592 -0.177979,2.94819 l -1.005668,10.133813 -2.356994,0.36556 1.502214,-15.137303 3.229957,-0.501 5.354156,9.563073 c 0.414365,0.73254 0.674392,1.28809 0.780074,1.66665 l 0.08722,-0.0107 c 0.49949,-0.89512 0.895583,-1.56631 1.188274,-2.01357 l 7.576051,-11.527083 3.055362,-0.47389 z"
       id="text1-5-0-9-8-8"
       style="font-size:11.2889px;font-family:'Segoe UI';-inkscape-font-specification:'Segoe UI';fill:#808000;stroke:#910931;stroke-width:2.70386;stroke-linecap:round;stroke-linejoin:round;stroke-opacity:1"
       aria-label="M"
       sodipodi:nodetypes="ccscccccccccsccccccccccc"
       inkscape:export-filename="mantis.svg"
       inkscape:export-xdpi="96"
       inkscape:export-ydpi="96" />
    <path
       d="m 42.672732,104.68139 -2.429741,0.37685 1.007763,-10.154863 c 0.07958,-0.80225 0.244937,-1.79447 0.495964,-2.97672 l -0.05821,0.0107 c -0.300543,0.71875 -0.557607,1.24017 -0.771232,1.56434 l -8.283616,12.738533 -1.193051,0.18494 -0.06159,-0.10808 -5.907035,-10.337013 c -0.170159,-0.30618 -0.327375,-0.79109 -0.471628,-1.4547 l -0.05818,0.0107 c 0.01735,0.59316 -0.04182,1.5759 -0.177952,2.94817 l -1.005671,10.133783 -2.356994,0.36561 1.502214,-15.137353 3.22996,-0.50095 5.354153,9.563023 c 0.414368,0.73257 0.674392,1.28812 0.780077,1.66668 l 0.08721,-0.0107 c 0.499487,-0.89515 0.89558,-1.56631 1.188279,-2.01359 l 7.576042,-11.527053 3.055367,-0.47392 z"
       id="text1-5-0-9-8"
       style="font-size:11.2889px;font-family:'Segoe UI';-inkscape-font-specification:'Segoe UI';fill:#808000;stroke:#a40a38;stroke-width:2.70386;stroke-linecap:round;stroke-linejoin:round;stroke-opacity:1"
       aria-label="M"
       sodipodi:nodetypes="ccscccccccccsccccccccccc" />
    <path
       d="m 62.78438,102.02161 -2.742956,0.22604 -2.373626,-3.305613 -10.738507,4.333453 -0.204479,0.0691 -2.757707,0.22711 7.639789,-13.118393 2.566,-0.21137 z m -5.977279,-4.323823 -3.518821,-5.03146 c -0.114703,-0.16466 -0.233382,-0.43367 -0.355976,-0.80676 l -0.05898,0.005 c -0.08484,0.36118 -0.187559,0.64831 -0.307653,0.86141 l -4.860148,9.170533 z"
       id="text2"
       style="font-size:11.2889px;font-family:'Segoe UI';-inkscape-font-specification:'Segoe UI';fill:#808000;stroke:#453a62;stroke-width:2.49187;stroke-linejoin:round;stroke-opacity:1"
       aria-label="A"
       sodipodi:nodetypes="cccccccccccccccc" />
    <path
       d="m 63.452797,103.33479 -2.742957,0.22605 -2.373623,-3.30559 -10.73851,4.33345 -0.204479,0.0691 -2.757701,0.22711 7.639794,-13.118393 2.565994,-0.21137 z m -5.977282,-4.323763 -3.518816,-5.03152 c -0.114703,-0.16466 -0.233408,-0.43364 -0.355976,-0.80679 l -0.05898,0.005 c -0.08484,0.36116 -0.187559,0.64832 -0.307647,0.86142 l -4.860154,9.170523 z"
       id="text2-0-0-7-6-0-7"
       style="font-size:11.2889px;font-family:'Segoe UI';-inkscape-font-specification:'Segoe UI';fill:#808000;stroke:#40243e;stroke-width:2.49187;stroke-linejoin:round;stroke-opacity:1"
       aria-label="A"
       sodipodi:nodetypes="cccccccccccccccc" />
    <path
       d="m 63.372433,103.13589 -2.742962,0.22604 -2.373623,-3.30556 -10.738505,4.33343 -0.204479,0.0691 -2.757709,0.22711 7.639794,-13.118403 2.566,-0.21136 z m -5.977279,-4.323823 -3.518824,-5.03146 c -0.114703,-0.16466 -0.233409,-0.43364 -0.355979,-0.80676 l -0.05898,0.005 c -0.08484,0.36116 -0.187506,0.64829 -0.30765,0.86139 l -4.860148,9.170553 z"
       id="text2-0-0-7-6-0"
       style="font-size:11.2889px;font-family:'Segoe UI';-inkscape-font-specification:'Segoe UI';fill:#808000;stroke:#502c4c;stroke-width:2.49187;stroke-linejoin:round;stroke-opacity:1"
       aria-label="A"
       sodipodi:nodetypes="cccccccccccccccc" />
    <path
       d="m 80.915735,104.37437 -2.964849,-0.0544 -10.476442,-11.932833 q -0.397528,-0.44894 -0.650618,-0.93638 l -0.08636,-0.002 q 0.109312,0.47453 0.09012,2.02523 l -0.131623,10.639273 -2.417948,-0.0443 0.182195,-14.726583 3.137556,0.0574 10.190879,11.742723 q 0.638766,0.73073 0.822565,1.00118 l 0.05757,10e-4 q -0.136052,-0.63938 -0.117104,-2.169513 l 0.12834,-10.37231 2.417937,0.0443 z"
       id="text3-4-6-0-2"
       style="font-size:10.9506px;font-family:'Segoe UI';-inkscape-font-specification:'Segoe UI';fill:#808000;stroke:#29598c;stroke-width:2.67347;stroke-linejoin:round"
       aria-label="N" />
    <path
       d="m 56.282637,83.450917 -1.356608,3.75628 -2.180732,-0.0982 1.356611,-3.75623 z"
       id="text16-3-4-1-1-8-4"
       style="font-size:11.2889px;font-family:'Segoe UI';-inkscape-font-specification:'Segoe UI';fill:#808000;stroke:#40243e;stroke-width:2.08067;stroke-linecap:round;stroke-linejoin:round;stroke-opacity:1"
       aria-label="'" />
    <path
       d="m 42.236323,104.49482 -2.429744,0.3769 1.007763,-10.154893 c 0.07958,-0.8023 0.244937,-1.79452 0.495962,-2.97672 l -0.0582,0.0107 c -0.300544,0.71875 -0.557608,1.24016 -0.771235,1.56434 l -8.283616,12.738553 -1.193048,0.18521 -0.0616,-0.10808 -5.90703,-10.337033 c -0.170159,-0.30619 -0.32738,-0.7911 -0.471636,-1.45468 l -0.05821,0.0107 c 0.01735,0.59313 -0.04182,1.57592 -0.177979,2.94822 l -1.005668,10.133753 -2.356994,0.36557 1.502214,-15.137333 3.22996,-0.50095 5.354159,9.563043 c 0.41436,0.73257 0.674386,1.28812 0.780074,1.66668 l 0.08722,-0.0107 c 0.499487,-0.89518 0.895585,-1.56634 1.188276,-2.01362 l 7.576043,-11.527053 3.055368,-0.47392 z"
       id="text1-5-0-9"
       style="font-size:11.2889px;font-family:'Segoe UI';-inkscape-font-specification:'Segoe UI';fill:#808000;stroke:#bd0c41;stroke-width:2.70386;stroke-linecap:round;stroke-linejoin:round;stroke-opacity:1"
       aria-label="M"
       sodipodi:nodetypes="ccscccccccccsccccccccccc" />
    <path
       d="m 55.572018,82.386107 -1.356606,3.75626 -2.180721,-0.0982 1.3566,-3.7562 z"
       id="text16"
       style="font-size:11.2889px;font-family:'Segoe UI';-inkscape-font-specification:'Segoe UI';fill:#808000;stroke:#453a62;stroke-width:2.08067;stroke-linecap:round;stroke-linejoin:round"
       aria-label="'" />
    <path
       d="m 56.085585,83.282247 -1.356605,3.75626 -2.180729,-0.0979 1.356608,-3.75621 z"
       id="text16-3-4-1-1-8"
       style="font-size:11.2889px;font-family:'Segoe UI';-inkscape-font-specification:'Segoe UI';fill:#808000;stroke:#502c4c;stroke-width:2.08067;stroke-linecap:round;stroke-linejoin:round"
       aria-label="'" />
    <path
       d="m 63.260759,102.83483 -2.742951,0.22604 -2.373629,-3.305613 -10.738504,4.333453 -0.204479,0.0691 -2.757704,0.22711 7.639791,-13.118373 2.566,-0.21136 z m -5.977279,-4.323853 -3.518821,-5.03146 c -0.114703,-0.16466 -0.233409,-0.43362 -0.355976,-0.80671 l -0.05898,0.003 c -0.08484,0.36122 -0.187533,0.64832 -0.30765,0.86142 l -4.860151,9.170553 z"
       id="text2-0-0-7-6"
       style="font-size:11.2889px;font-family:'Segoe UI';-inkscape-font-specification:'Segoe UI';fill:#808000;stroke:#62365e;stroke-width:2.49187;stroke-linejoin:round;stroke-opacity:1"
       aria-label="A"
       sodipodi:nodetypes="cccccccccccccccc" />
    <path
       d="m 80.936252,104.42831 -2.964849,-0.0544 -10.476436,-11.932813 q -0.397528,-0.44899 -0.650619,-0.93641 l -0.08636,-0.002 q 0.109312,0.4745 0.09012,2.02523 l -0.131596,10.639263 -2.417951,-0.0443 0.182169,-14.726553 3.137559,0.0574 10.190873,11.742663 q 0.638772,0.73075 0.822571,1.00117 l 0.05756,0.001 q -0.136053,-0.63933 -0.117105,-2.16951 l 0.12834,-10.372263 2.41793,0.0443 z"
       id="text3-4-6-0-2-0"
       style="font-size:10.9506px;font-family:'Segoe UI';-inkscape-font-specification:'Segoe UI';fill:#808000;stroke:#255180;stroke-width:2.67347;stroke-linejoin:round"
       aria-label="N" />
    <path
       d="m 63.140823,102.55186 -2.742956,0.22605 -2.373624,-3.305563 -10.738504,4.333403 -0.204479,0.0691 -2.757712,0.22711 7.639797,-13.118373 2.566,-0.21137 z m -5.977281,-4.323793 -3.518819,-5.03149 c -0.114703,-0.16466 -0.233409,-0.43367 -0.355976,-0.80676 l -0.05898,0.005 c -0.08484,0.36119 -0.187533,0.64829 -0.30765,0.86142 l -4.860148,9.170553 z"
       id="text2-0-0-7"
       style="font-size:11.2889px;font-family:'Segoe UI';-inkscape-font-specification:'Segoe UI';fill:#808000;stroke:#6c3b68;stroke-width:2.49187;stroke-linejoin:round;stroke-opacity:1"
       aria-label="A"
       sodipodi:nodetypes="cccccccccccccccc" />
    <path
       d="m 80.950221,104.00307 -2.964847,-0.0544 -10.476442,-11.932783 q -0.397525,-0.44902 -0.650621,-0.93644 l -0.08636,-0.002 q 0.109285,0.47453 0.0901,2.02523 l -0.131595,10.639273 -2.417936,-0.0443 0.182169,-14.726563 3.137559,0.0574 10.190876,11.742663 q 0.638769,0.73075 0.822568,1.0012 l 0.05757,10e-4 Q 78.567209,101.134 78.586158,99.603847 l 0.128339,-10.37231 2.417933,0.0443 z"
       id="text3-4-6-0"
       style="font-size:10.9506px;font-family:'Segoe UI';-inkscape-font-specification:'Segoe UI';fill:#808000;stroke:#2d6199;stroke-width:2.67347;stroke-linejoin:round"
       aria-label="N" />
    <path
       d="m 55.886372,83.102057 -1.356614,3.75628 -2.180724,-0.0982 1.356608,-3.75623 z"
       id="text16-3-4-1-1"
       style="font-size:11.2889px;font-family:'Segoe UI';-inkscape-font-specification:'Segoe UI';fill:#808000;stroke:#62365e;stroke-width:2.08067;stroke-linecap:round;stroke-linejoin:round"
       aria-label="'" />
    <path
       d="m 62.943184,102.25739 -2.742956,0.22605 -2.373626,-3.305593 -10.738505,4.333453 -0.204479,0.0691 -2.757704,0.22711 7.639789,-13.118393 2.565994,-0.21137 z m -5.977279,-4.323813 -3.518824,-5.03149 c -0.114703,-0.16467 -0.233408,-0.43365 -0.355973,-0.80677 l -0.05898,0.005 c -0.08484,0.36116 -0.18756,0.64827 -0.307653,0.86137 l -4.860148,9.170553 z"
       id="text2-0-0"
       style="font-size:11.2889px;font-family:'Segoe UI';-inkscape-font-specification:'Segoe UI';fill:#808000;stroke:#7a4276;stroke-width:2.49187;stroke-linejoin:round;stroke-opacity:1"
       aria-label="A"
       sodipodi:nodetypes="cccccccccccccccc" />
    <path
       d="M 80.950221,103.64303 77.985369,103.58863 67.50893,91.655797 q -0.397529,-0.44897 -0.650621,-0.93636 l -0.08636,-0.002 q 0.109312,0.47453 0.09012,2.02523 l -0.131595,10.639273 -2.417936,-0.0443 0.182169,-14.726553 3.137559,0.0574 10.190881,11.742663 q 0.638764,0.73078 0.822563,1.0012 l 0.05756,10e-4 q -0.136053,-0.6393 -0.117104,-2.169503 l 0.128313,-10.37224 2.417938,0.0443 z"
       id="text3-4-6"
       style="font-size:10.9506px;font-family:'Segoe UI';-inkscape-font-specification:'Segoe UI';fill:#808000;stroke:#3573b6;stroke-width:2.67347;stroke-linejoin:round"
       aria-label="N" />
    <path
       d="m 55.770671,82.872597 -1.356611,3.75626 -2.180724,-0.0979 1.356616,-3.75625 z"
       id="text16-3-4-1"
       style="font-size:11.2889px;font-family:'Segoe UI';-inkscape-font-specification:'Segoe UI';fill:#808000;stroke:#6c3b68;stroke-width:2.08067;stroke-linecap:round;stroke-linejoin:round"
       aria-label="'" />
    <path
       d="m 62.753103,102.03978 -2.742959,0.22605 -2.373626,-3.305593 -10.738505,4.333433 -0.204479,0.0691 -2.757706,0.22711 7.639796,-13.118353 2.565995,-0.21136 z M 56.775821,97.715987 53.257,92.684497 c -0.114703,-0.16466 -0.233409,-0.43367 -0.355973,-0.80673 l -0.05898,0.005 c -0.08484,0.36118 -0.187532,0.64823 -0.30765,0.86139 l -4.86015,9.169753 z"
       id="text2-0"
       style="font-size:11.2889px;font-family:'Segoe UI';-inkscape-font-specification:'Segoe UI';fill:#8f4e8b;fill-opacity:1;stroke:#8f4e8b;stroke-width:2.49187;stroke-linejoin:round;stroke-opacity:1"
       aria-label="A"
       sodipodi:nodetypes="cccccccccccccccc" />
    <path
       d="m 100.43687,91.573957 -6.995762,-0.17133 V 104.7725 l -2.838866,-0.0694 V 91.333197 l -6.978874,-0.1708 v -1.58521 l 16.813502,0.41112 z"
       id="text4-7-7-9-3-2"
       style="font-size:11.9559px;font-family:'Segoe UI';-inkscape-font-specification:'Segoe UI';fill:#808000;stroke:#003704;stroke-width:2.91888;stroke-linejoin:round;stroke-opacity:1"
       aria-label="T" />
    <path
       d="m 80.950237,103.28299 -2.964852,-0.0544 -10.476439,-11.932813 q -0.397526,-0.44896 -0.650619,-0.93635 l -0.08636,-0.002 q 0.109311,0.47452 0.09012,2.02517 l -0.131596,10.639323 -2.41793,-0.0443 0.182169,-14.726583 3.137559,0.0574 10.190879,11.742663 q 0.638766,0.73073 0.822565,1.00115 l 0.05757,0.001 Q 78.56725,100.4139 78.586199,98.883747 l 0.128339,-10.37229 2.417938,0.0443 z"
       id="text3-4"
       style="font-size:10.9506px;font-family:'Segoe UI';-inkscape-font-specification:'Segoe UI';fill:#808000;stroke:#4887ca;stroke-width:2.67347;stroke-linejoin:round"
       aria-label="N" />
    <path
       d="m 55.621934,82.671347 -1.356606,3.75626 -2.180726,-0.0982 1.3566,-3.75623 z"
       id="text16-3-4"
       style="font-size:11.2889px;font-family:'Segoe UI';-inkscape-font-specification:'Segoe UI';fill:#808000;stroke:#7a4276;stroke-width:2.08067;stroke-linecap:round;stroke-linejoin:round"
       aria-label="'" />
    <path
       d="m 55.534065,82.399747 -1.356608,3.75623 -2.180729,-0.0982 1.356616,-3.75625 z"
       id="text16-3"
       style="font-size:11.2889px;font-family:'Segoe UI';-inkscape-font-specification:'Segoe UI';fill:#808000;stroke:#8f4e8b;stroke-width:2.08067;stroke-linecap:round;stroke-linejoin:round"
       aria-label="'" />
    <path
       d="m 100.49366,91.333927 -6.995769,-0.17133 V 104.5325 l -2.838866,-0.0697 V 91.092897 l -6.978874,-0.1708 v -1.58518 l 16.813509,0.4111 z"
       id="text4-7-7-9-3"
       style="font-size:11.9559px;font-family:'Segoe UI';-inkscape-font-specification:'Segoe UI';fill:#808000;stroke:#005a07;stroke-width:2.91888;stroke-linejoin:round"
       aria-label="T" />
    <path
       d="m 100.52159,91.027317 -6.995766,-0.17107 v 13.369903 l -2.838863,-0.0696 V 90.786757 l -6.978869,-0.1708 v -1.58521 l 16.813498,0.41112 z"
       id="text4-7-7-9"
       style="font-size:11.9559px;font-family:'Segoe UI';-inkscape-font-specification:'Segoe UI';fill:#808000;stroke:#007309;stroke-width:2.91888;stroke-linejoin:round"
       aria-label="T" />
    <path
       d="m 102.67618,105.82348 -2.34249,-0.43528 2.98711,-15.526593 2.34249,0.4353 z"
       id="text5-6-7-5-1-9"
       style="font-size:11.2889px;font-family:'Segoe UI';-inkscape-font-specification:'Segoe UI';fill:#808000;stroke:#5b5b00;stroke-width:2.74953;stroke-linejoin:round;stroke-opacity:1"
       inkscape:transform-center-x="-0.18323176"
       inkscape:transform-center-y="0.72330467"
       aria-label="Ι" />
    <path
       d="m 100.5573,90.752407 -6.995768,-0.17133 v 13.369903 l -2.838863,-0.0694 V 90.511677 l -6.978872,-0.1708 v -1.58518 l 16.813503,0.41107 z"
       id="text4-7-7"
       style="font-size:11.9559px;font-family:'Segoe UI';-inkscape-font-specification:'Segoe UI';fill:#808000;stroke:#00940c;stroke-width:2.91888;stroke-linejoin:round"
       aria-label="T" />
    <path
       d="m 100.54983,90.472697 -6.995762,-0.17133 v 13.369923 l -2.838866,-0.0696 V 90.231787 l -6.978869,-0.1708 v -1.58518 l 16.813497,0.41109 z"
       id="text4-7"
       style="font-size:11.9559px;font-family:'Segoe UI';-inkscape-font-specification:'Segoe UI';fill:#808000;stroke:#00b30e;stroke-width:2.91888;stroke-linejoin:round"
       aria-label="T" />
    <path
       d="m 102.9681,105.62097 -2.34249,-0.43532 2.98711,-15.526513 2.34248,0.43529 z"
       id="text5-6-7-5-1"
       style="font-size:11.2889px;font-family:'Segoe UI';-inkscape-font-specification:'Segoe UI';fill:#808000;stroke:#868600;stroke-width:2.74953;stroke-linejoin:round;stroke-opacity:1"
       inkscape:transform-center-x="-0.18323632"
       inkscape:transform-center-y="0.72332215"
       aria-label="Ι" />
    <path
       d="m 100.59641,90.210357 -6.99577,-0.17106 V 103.4092 l -2.83886,-0.0697 V 89.969597 l -6.978875,-0.1708 v -1.58518 l 16.813505,0.4111 z"
       id="text4"
       style="font-size:11.9559px;font-family:'Segoe UI';-inkscape-font-specification:'Segoe UI';fill:#808000;stroke:#00d711;stroke-width:2.91888;stroke-linejoin:round"
       aria-label="T" />
    <path
       d="m 80.901455,102.97483 -2.964852,-0.0544 -10.476437,-11.932783 q -0.397528,-0.44899 -0.650621,-0.93641 l -0.08636,-0.002 q 0.109311,0.4745 0.09015,2.0252 l -0.131596,10.639293 -2.417935,-0.0443 0.182195,-14.726583 3.137559,0.0574 10.190881,11.74266 q 0.638764,0.730733 0.822566,1.001183 l 0.05756,0.001 q -0.136053,-0.63935 -0.117105,-2.169523 l 0.12834,-10.37229 2.417935,0.0443 z"
       id="text3"
       style="font-size:10.9506px;font-family:'Segoe UI';-inkscape-font-specification:'Segoe UI';fill:#808000;stroke:#659ad3;stroke-width:2.67347;stroke-linejoin:round"
       aria-label="N" />
    <path
       d="m 41.78454,104.26063 -2.429742,0.37686 1.007758,-10.154923 c 0.07961,-0.80223 0.244937,-1.79446 0.495964,-2.97672 l -0.0582,0.0107 c -0.300546,0.71872 -0.55761,1.24016 -0.771235,1.56431 l -8.283615,12.738533 -1.193049,0.18494 -0.0616,-0.10808 -5.907032,-10.336983 c -0.170159,-0.30619 -0.327375,-0.7911 -0.471626,-1.45468 l -0.05821,0.0107 c 0.01735,0.59319 -0.04182,1.57595 -0.177952,2.94819 l -1.00567,10.133783 -2.356992,0.36562 1.502212,-15.137333 3.229959,-0.501 5.354156,9.563073 c 0.414366,0.73254 0.674389,1.28809 0.780074,1.66671 l 0.08721,-0.0107 c 0.499496,-0.89515 0.895583,-1.56634 1.188282,-2.01356 l 7.576041,-11.527083 3.05537,-0.47392 z"
       id="text1-5-0"
       style="font-size:11.2889px;font-family:'Segoe UI';-inkscape-font-specification:'Segoe UI';fill:#808000;stroke:#d00e48;stroke-width:2.70386;stroke-linecap:round;stroke-linejoin:round;stroke-opacity:1"
       aria-label="M"
       sodipodi:nodetypes="ccscccccccccsccccccccccc" />
    <path
       d="m 41.375614,104.01855 -2.429745,0.37683 1.007766,-10.154873 c 0.07958,-0.80225 0.244937,-1.79451 0.495959,-2.97671 l -0.05818,0.0107 c -0.300545,0.7187 -0.557612,1.24017 -0.771237,1.56434 l -8.283616,12.738533 -1.193045,0.18494 -0.0616,-0.10808 -5.907035,-10.337013 c -0.170159,-0.30618 -0.327378,-0.79109 -0.471631,-1.45465 l -0.05818,0.0107 c 0.01735,0.59316 -0.04179,1.5759 -0.177952,2.94819 l -1.005668,10.133783 -2.357,0.36559 1.502217,-15.137323 3.229959,-0.50101 5.354154,9.563073 c 0.414368,0.73257 0.674394,1.28813 0.780082,1.66669 l 0.08721,-0.0107 c 0.49949,-0.89512 0.895582,-1.56631 1.18828,-2.01359 l 7.576041,-11.527083 3.05537,-0.47386 z"
       id="text1-5"
       style="font-size:11.2889px;font-family:'Segoe UI';-inkscape-font-specification:'Segoe UI';fill:#808000;stroke:#f0215f;stroke-width:2.70386;stroke-linecap:round;stroke-linejoin:round;stroke-opacity:1"
       aria-label="M"
       sodipodi:nodetypes="ccscccccccccsccccccccccc" />
    <path
       d="m 41.007105,103.78223 -2.429741,0.37683 1.007757,-10.154863 c 0.07961,-0.80225 0.244938,-1.79452 0.495965,-2.97675 l -0.0582,0.0107 c -0.300546,0.71869 -0.55761,1.24019 -0.771235,1.56434 l -8.283616,12.738523 -1.193048,0.18495 -0.0616,-0.10809 -5.90703,-10.336983 c -0.170159,-0.30626 -0.327377,-0.79112 -0.471625,-1.45473 l -0.05821,0.008 c 0.01735,0.59321 -0.04182,1.57589 -0.177979,2.94821 l -1.005668,10.133783 -2.356992,0.3656 1.502212,-15.137363 3.229957,-0.50095 5.354159,9.563023 c 0.414362,0.73257 0.674389,1.28815 0.780074,1.66668 l 0.08721,-0.0107 c 0.499495,-0.89515 0.895587,-1.56632 1.188282,-2.0136 l 7.576046,-11.527053 3.05537,-0.47389 z"
       id="text1"
       style="font-size:11.2889px;font-family:'Segoe UI';-inkscape-font-specification:'Segoe UI';fill:#808000;stroke:#f34b7d;stroke-width:2.70386;stroke-linecap:round;stroke-linejoin:round;stroke-opacity:1"
       aria-label="M"
       sodipodi:nodetypes="ccscccccccccsccccccccccc" />
    <path
       d="m 103.22096,105.41516 -2.34249,-0.4353 2.98711,-15.526543 2.34249,0.4353 z"
       id="text5-6-7-5"
       style="font-size:11.2889px;font-family:'Segoe UI';-inkscape-font-specification:'Segoe UI';fill:#808000;stroke:#a9a900;stroke-width:2.74953;stroke-linejoin:round;stroke-opacity:1"
       inkscape:transform-center-x="-0.18323377"
       inkscape:transform-center-y="0.72330207"
       aria-label="Ι" />
    <path
       d="m 120.97362,108.92749 -13.8293,-2.97816 0.0125,-0.78138 6.79393,-5.172183 -5.98053,-7.38028 0.0147,-0.90161 12.33424,2.6562 -0.0256,1.55276 -8.81223,-1.89772 5.35976,6.532823 -6.13642,4.67033 10.29291,2.2166 z"
       id="text6-2-5-9-6-2"
       style="font-size:11.13px;font-family:'Segoe UI';-inkscape-font-specification:'Segoe UI';fill:#808000;stroke:#163a5e;stroke-width:2.64332;stroke-linejoin:round;stroke-opacity:1"
       aria-label="Σ" />
    <path
       d="m 103.54865,105.18186 -2.34249,-0.4353 2.98711,-15.526543 2.34249,0.4353 z"
       id="text5-6-7"
       style="font-size:11.2889px;font-family:'Segoe UI';-inkscape-font-specification:'Segoe UI';fill:#808000;stroke:#c8c800;stroke-width:2.74953;stroke-linejoin:round;stroke-opacity:1"
       inkscape:transform-center-x="-0.18323317"
       inkscape:transform-center-y="0.72330683"
       aria-label="Ι" />
    <path
       d="m 121.28888,108.8177 -13.82931,-2.97816 0.0125,-0.78138 6.79393,-5.172193 -5.98053,-7.38027 0.0147,-0.90164 12.33424,2.65623 -0.0256,1.55273 -8.81222,-1.89769 5.35975,6.532823 -6.13642,4.67032 10.29291,2.21661 z"
       id="text6-2-5-9-6"
       style="font-size:11.13px;font-family:'Segoe UI';-inkscape-font-specification:'Segoe UI';fill:#808000;stroke:#1c4b78;stroke-width:2.64332;stroke-linejoin:round;stroke-opacity:1"
       aria-label="Σ" />
    <path
       d="m 103.81843,104.97666 -2.34249,-0.43536 2.98711,-15.526513 2.34249,0.43528 z"
       id="text5-6"
       style="font-size:11.2889px;font-family:'Segoe UI';-inkscape-font-specification:'Segoe UI';fill:#808000;stroke:#eeee00;stroke-width:2.74953;stroke-linejoin:round;stroke-opacity:1"
       inkscape:transform-center-x="-0.18323686"
       inkscape:transform-center-y="0.72332244"
       aria-label="Ι" />
    <path
       d="m 121.79165,108.58896 -13.8293,-2.97816 0.0125,-0.78135 6.79393,-5.172213 -5.98053,-7.38028 0.0147,-0.90161 12.33424,2.6562 -0.0256,1.55276 -8.81223,-1.89772 5.35976,6.532823 -6.13643,4.67033 10.29292,2.2166 z"
       id="text6-2-5-9"
       style="font-size:11.13px;font-family:'Segoe UI';-inkscape-font-specification:'Segoe UI';fill:#808000;stroke:#21568b;stroke-width:2.64332;stroke-linejoin:round;stroke-opacity:1"
       aria-label="Σ" />
    <path
       d="m 122.11642,108.34507 -13.8293,-2.97816 0.0125,-0.78138 6.79392,-5.172193 -5.98053,-7.3803 0.0147,-0.90159 12.33425,2.65618 -0.0256,1.55278 -8.81223,-1.89772 5.35976,6.53282 -6.13642,4.670333 10.29291,2.2166 z"
       id="text6-2-5"
       style="font-size:11.13px;font-family:'Segoe UI';-inkscape-font-specification:'Segoe UI';fill:#808000;stroke:#25629f;stroke-width:2.64332;stroke-linejoin:round;stroke-opacity:1"
       aria-label="Σ" />
    <path
       d="m 122.5669,108.1456 -13.8293,-2.97815 0.0125,-0.78139 6.79392,-5.172213 -5.98053,-7.38025 0.0147,-0.90161 12.33424,2.6562 -0.0256,1.55276 -8.81223,-1.89772 5.35976,6.53282 -6.13643,4.670303 10.29291,2.21661 z"
       id="text6-2"
       style="font-size:11.13px;font-family:'Segoe UI';-inkscape-font-specification:'Segoe UI';fill:#808000;stroke:#2a6cb1;stroke-width:2.64332;stroke-linejoin:round;stroke-opacity:1"
       aria-label="Σ" />
    <path
       d="m 122.86798,107.93427 -13.8293,-2.97816 0.0125,-0.78138 6.79393,-5.172223 -5.98053,-7.38027 0.0147,-0.90159 12.33424,2.65618 -0.0256,1.55278 -8.81222,-1.89772 5.35975,6.53279 -6.13642,4.670333 10.29291,2.21661 z"
       id="text6"
       style="font-size:11.13px;font-family:'Segoe UI';-inkscape-font-specification:'Segoe UI';fill:#808000;stroke:#2f78c5;stroke-width:2.64332;stroke-linejoin:round"
       aria-label="Σ" />
    <path
       d="m 104.18715,104.74669 -2.34249,-0.43527 2.9871,-15.526573 2.34249,0.43533 z"
       id="text5"
       style="font-size:11.2889px;font-family:'Segoe UI';-inkscape-font-specification:'Segoe UI';fill:#808000;stroke:#ffff07;stroke-width:2.74953;stroke-linejoin:round;stroke-opacity:1"
       inkscape:transform-center-x="-0.1832369"
       inkscape:transform-center-y="0.72328802"
       aria-label="Ι" />
  </g>
</svg>
