<?xml version="1.0" encoding="UTF-8" standalone="no"?>
<!-- Created with Inkscape (http://www.inkscape.org/) -->

<svg
   width="62.574844mm"
   height="62.7258mm"
   viewBox="0 0 62.574844 62.7258"
   version="1.1"
   id="svg1"
   xmlns:inkscape="http://www.inkscape.org/namespaces/inkscape"
   xmlns:sodipodi="http://sodipodi.sourceforge.net/DTD/sodipodi-0.dtd"
   xmlns="http://www.w3.org/2000/svg"
   xmlns:svg="http://www.w3.org/2000/svg">
  <sodipodi:namedview
     id="namedview1"
     pagecolor="#505050"
     bordercolor="#eeeeee"
     borderopacity="1"
     inkscape:showpageshadow="0"
     inkscape:pageopacity="0"
     inkscape:pagecheckerboard="0"
     inkscape:deskcolor="#505050"
     inkscape:document-units="mm" />
  <defs
     id="defs1" />
  <g
     inkscape:label="Στρώση 1"
     inkscape:groupmode="layer"
     id="layer1"
     transform="translate(-73.276438,-112.39312)">
    <path
       id="path1"
       style="fill:#ffb700;fill-opacity:1;stroke-width:0.376999;stroke-linecap:round;stroke-linejoin:round"
       d="m 91.318074,165.89226 c 3.16002,3.61128 25.483646,-25.13758 32.187486,-34.46632 2.01724,-2.8071 -2.61842,-6.13935 -13.97167,-6.18035 -13.424885,-2.5e-4 -24.308049,10.88268 -24.308084,24.30756 1.16e-4,5.08823 0.759613,10.03871 6.092268,16.33911 z"
       sodipodi:nodetypes="csccc" />
    <path
       id="path1-2"
       style="fill:#c9c3ce;fill-opacity:1;stroke-width:0.368911;stroke-linecap:round;stroke-linejoin:round"
       d="m 126.36968,132.95685 c -0.85254,1.62094 -3.57496,7.32497 -7.90221,12.93355 -4.00629,5.1926 -9.15463,11.12936 -12.66232,14.95713 -4.23535,4.62187 -9.183266,6.84925 -10.96381,7.88519 -2.508904,1.45971 5.46465,6.34803 16.33612,6.38619 12.85524,-0.003 24.66002,-14.92473 24.67214,-23.97457 0.12385,-6.52559 -6.61348,-23.63748 -9.47992,-18.18749 z"
       sodipodi:nodetypes="ssssccs" />
    <path
       id="path1-1"
       style="fill:#e4ad5a;fill-opacity:1;stroke-width:0.34785;stroke-linecap:round;stroke-linejoin:round"
       d="m 95.350981,132.32279 c -1.755028,1.63994 -7.835882,7.63053 -7.848966,16.98083 1.06e-4,6.00022 0.626174,9.69606 4.796086,13.93875 2.491305,2.53493 24.473639,-23.62417 26.265499,-29.62317 1.77248,-5.93411 -17.82142,-6.782 -23.212619,-1.29641 z"
       sodipodi:nodetypes="cccsc" />
    <path
       style="fill:#ffb700;fill-opacity:1;stroke-width:0.398499;stroke-linecap:round;stroke-linejoin:round"
       d="m 101.76158,123.48978 c 2.88968,-1.3074 7.7833,-1.07853 7.7833,-1.07853 0,0 -3.15947,-7.26203 -4.07966,-7.02808 -0.28253,0.0718 -3.4568,4.6 -3.70364,8.10661 z"
       id="path3-5"
       sodipodi:nodetypes="ccsc"
       inkscape:transform-center-x="0.004101376"
       inkscape:transform-center-y="-2.3288136" />
    <path
       style="fill:#ffb700;fill-opacity:1;stroke-width:0.398499;stroke-linecap:round;stroke-linejoin:round"
       d="m 84.542329,139.68845 c 0.729371,-3.08668 3.899052,-6.82205 3.899052,-6.82205 0,0 -7.680074,-1.93289 -8.056751,-1.06134 -0.115702,0.26756 1.531634,5.54651 4.157699,7.88339 z"
       id="path3-5-3-6"
       sodipodi:nodetypes="ccsc"
       inkscape:transform-center-x="1.143466"
       inkscape:transform-center-y="0.085187492" />
    <path
       style="fill:#ffb700;fill-opacity:1;stroke-width:0.398499;stroke-linecap:round;stroke-linejoin:round"
       d="m 85.349634,161.88481 c -1.885175,-2.55061 -2.689243,-7.38314 -2.689243,-7.38314 0,0 -6.436455,4.61428 -6.014449,5.46479 0.129514,0.26116 5.22346,2.41354 8.703692,1.91835 z"
       id="path3-5-3-6-9"
       sodipodi:nodetypes="ccsc"
       inkscape:transform-center-x="1.8548021"
       inkscape:transform-center-y="-0.20865395" />
    <path
       style="fill:#ffb700;fill-opacity:1;stroke-width:0.584957;stroke-linecap:round;stroke-linejoin:round"
       d="m 82.177569,152.66649 c -0.755609,-4.59398 1.428527,-11.44547 1.428527,-11.44547 0,0 -6.105418,1.33616 -10.05099,0.7993 -1.496527,-0.20364 3.272065,8.91642 8.622463,10.64617 z"
       id="path3-5-3-6-8"
       sodipodi:nodetypes="ccsc"
       inkscape:transform-center-x="3.3604593"
       inkscape:transform-center-y="0.4572643" />
    <path
       style="fill:#ffb700;fill-opacity:1;stroke-width:0.584957;stroke-linecap:round;stroke-linejoin:round"
       d="m 90.051566,130.49485 c 3.043366,-3.52329 9.703467,-6.23557 9.703467,-6.23557 0,0 -8.686293,-7.72609 -9.767865,-6.84708 -0.332129,0.26981 -1.768801,8.25917 0.06439,13.08265 z"
       id="path3-5-3-6-8-4"
       sodipodi:nodetypes="ccsc"
       inkscape:transform-center-x="-0.27022261"
       inkscape:transform-center-y="-1.8732733" />
    <path
       style="fill:#ffb700;fill-opacity:1;stroke-width:0.584957;stroke-linecap:round;stroke-linejoin:round"
       d="m 112.21648,122.06714 c 4.64927,-0.2446 11.21824,2.68153 11.21824,2.68153 0,0 -0.34766,-11.75843 -4.18682,-12.35499 -0.42285,-0.0657 -2.12922,5.57736 -7.03144,9.67344 z"
       id="path3-5-3-6-8-4-6"
       sodipodi:nodetypes="ccscc"
       inkscape:transform-center-x="0.63999875"
       inkscape:transform-center-y="-2.9313671" />
    <path
       style="fill:#e8ac52;fill-opacity:1;stroke-width:0.351244;stroke-linecap:round;stroke-linejoin:round"
       d="m 119.65407,114.72482 c -0.30093,-0.16284 -1.35542,2.59539 -2.59014,4.05073 -0.51681,0.60912 -1.23353,1.15084 -2.54018,2.22984 -0.44428,0.36688 2.24379,-0.0353 3.81024,0.50061 1.79289,0.61336 1.84092,0.95322 2.86745,1.22736 0.88652,0.36641 -0.40271,-8.02082 -1.54737,-8.00854 z"
       id="path3"
       sodipodi:nodetypes="cssscc" />
    <path
       style="fill:#dd9730;fill-opacity:1;stroke-width:0.157838;stroke-linecap:round;stroke-linejoin:round"
       d="m 118.99419,117.71457 c -0.13523,-0.0731 -0.60908,1.16629 -1.16393,1.82027 -0.23224,0.27373 -0.5543,0.51715 -1.14147,1.00202 -0.19966,0.16487 1.00828,-0.0159 1.71219,0.22496 0.80567,0.27563 0.82726,0.42835 1.28854,0.55154 0.39838,0.16465 -0.18096,-3.6043 -0.69533,-3.59879 z"
       id="path3-3"
       sodipodi:nodetypes="cssscc" />
    <path
       style="fill:#e8ac52;fill-opacity:1;stroke-width:0.36446;stroke-linecap:round;stroke-linejoin:round"
       d="m 90.85925,119.16057 c -0.337283,0.11086 -0.647934,3.42158 -0.65973,5.40192 -0.0062,1.03984 0.06426,2.27961 0.659374,3.54803 0.253946,0.54127 1.432228,-1.5984 2.952848,-2.39771 1.74041,-0.91483 2.441295,-0.82762 3.37968,-1.40632 0.908161,-0.40737 -5.525592,-6.01788 -6.332172,-5.14592 z"
       id="path3-8"
       sodipodi:nodetypes="cssscc" />
    <path
       style="fill:#e8ac52;fill-opacity:1;stroke-width:0.209123;stroke-linecap:round;stroke-linejoin:round"
       d="m 105.32465,117.16443 c -0.20327,-0.0133 -1.07859,1.68205 -1.50957,2.73347 -0.22636,0.55206 -0.45466,1.22701 -0.40994,2.0297 0.0191,0.34252 1.10502,-0.54354 2.08573,-0.64284 1.12244,-0.11364 1.47675,0.0831 2.10027,-0.0237 0.57069,-0.022 -1.65022,-4.38774 -2.26649,-4.09665 z"
       id="path3-8-65"
       sodipodi:nodetypes="cssscc" />
    <path
       style="fill:#e8ac52;fill-opacity:1;stroke-width:0.209123;stroke-linecap:round;stroke-linejoin:round"
       d="m 81.784308,132.92827 c -0.138426,0.14944 0.626453,1.89742 1.171305,2.89459 0.28603,0.52363 0.666274,1.12621 1.317729,1.59729 0.27802,0.20097 0.274255,-1.20055 0.815108,-2.02464 0.619044,-0.94317 0.995054,-1.09433 1.305052,-1.64576 0.342534,-0.457 -4.446901,-1.48344 -4.609194,-0.82148 z"
       id="path3-8-65-8"
       sodipodi:nodetypes="cssscc"
       inkscape:transform-center-x="-1.3224792"
       inkscape:transform-center-y="-0.1889231" />
    <path
       style="fill:#e8ac52;fill-opacity:1;stroke-width:0.209123;stroke-linecap:round;stroke-linejoin:round"
       d="m 78.389839,159.66286 c 0.02468,0.20221 1.853238,0.7471 2.966445,0.9751 0.584513,0.1198 1.290146,0.21864 2.070531,0.0255 0.332993,-0.0824 -0.739486,-0.98472 -1.019382,-1.92987 -0.320309,-1.08176 -0.192893,-1.46646 -0.4137,-2.05926 -0.127699,-0.55666 -4.00448,2.43713 -3.603894,2.98854 z"
       id="path3-8-65-8-0"
       sodipodi:nodetypes="cssscc"
       inkscape:transform-center-x="-0.1172205"
       inkscape:transform-center-y="-1.7324942" />
    <path
       style="fill:#dd9730;fill-opacity:1;stroke-width:0.152928;stroke-linecap:round;stroke-linejoin:round"
       d="m 92.104666,121.77258 c -0.141526,0.0465 -0.271876,1.43571 -0.276825,2.26666 -0.0026,0.43632 0.02696,0.95654 0.276675,1.48877 0.106557,0.22711 0.600967,-0.6707 1.239022,-1.00609 0.730281,-0.38386 1.024374,-0.34728 1.418123,-0.5901 0.381067,-0.17093 -2.318552,-2.52512 -2.656995,-2.15924 z"
       id="path3-8-6"
       sodipodi:nodetypes="cssscc" />
    <path
       style="fill:#e8ac52;fill-opacity:1;stroke-width:0.343862;stroke-linecap:round;stroke-linejoin:round"
       d="m 75.003729,142.98522 c -2.191576,-0.67868 1.598445,4.26929 2.880837,5.62817 0.673334,0.71356 1.62407,1.31829 2.761893,1.99119 0.904094,0.53468 0.250756,-2.46503 0.531117,-4.09581 0.314311,-1.82826 1.769878,-4.6588 0.586078,-4.10714 -1.485408,0.69223 -4.545401,1.26938 -6.759925,0.58359 z"
       id="path3-8-0"
       sodipodi:nodetypes="ssssss" />
    <path
       style="fill:#dd9730;fill-opacity:1;stroke-width:0.159566;stroke-linecap:round;stroke-linejoin:round"
       d="m 76.79168,144.41002 c -1.016978,-0.31493 0.741744,1.98113 1.336824,2.6117 0.312454,0.33112 0.753633,0.61173 1.281629,0.92399 0.419535,0.24812 0.116361,-1.14388 0.24646,-1.90061 0.145853,-0.8484 0.821294,-2.16188 0.271963,-1.90588 -0.689288,0.32122 -2.109247,0.58904 -3.136876,0.2708 z"
       id="path3-8-0-8"
       sodipodi:nodetypes="ssssss" />
    <path
       id="rect5"
       style="fill:#a796b8;fill-opacity:1;stroke-width:0.150013;stroke-linecap:round;stroke-linejoin:round"
       d="m 125.21922,139.5853 c 1.14752,-1.18276 3.90076,-0.73012 4.42549,0 0.46005,0.64013 0.49769,3.17304 -0.30174,3.85972 -0.42969,0.36909 -3.19578,0.36845 -3.70171,-0.17744 -1.12161,-1.26144 -0.67944,-3.41698 -0.42204,-3.68228 z"
       sodipodi:nodetypes="ssscs" />
    <path
       id="rect5-4"
       style="fill:#a796b8;fill-opacity:1;stroke-width:0.218921;stroke-linecap:round;stroke-linejoin:round"
       d="m 130.74124,146.67748 c 2.05233,1.25364 2.29236,5.31842 1.42154,6.29994 -0.76348,0.86053 -4.35714,1.72772 -5.59145,0.81026 -0.66345,-0.49313 -1.55106,-4.43102 -0.93647,-5.32659 1.43546,-2.00187 4.64602,-2.06481 5.10638,-1.78361 z"
       sodipodi:nodetypes="ssscs" />
    <path
       id="rect5-4-0"
       style="fill:#a796b8;fill-opacity:1;stroke-width:0.0941154;stroke-linecap:round;stroke-linejoin:round"
       d="m 120.81547,149.03506 c 0.88231,0.53895 0.9855,2.28642 0.61113,2.70838 -0.32823,0.36995 -1.87316,0.74276 -2.4038,0.34833 -0.28522,-0.21199 -0.66681,-1.90492 -0.4026,-2.28993 0.61712,-0.86061 1.99736,-0.88767 2.19527,-0.76678 z"
       sodipodi:nodetypes="ssscs" />
    <path
       id="rect5-9"
       style="fill:#a796b8;fill-opacity:1;stroke-width:0.192734;stroke-linecap:round;stroke-linejoin:round"
       d="m 102.37654,168.84442 c 0.44448,-2.07006 3.7521,-3.45225 4.82103,-3.01426 0.93717,0.38399 2.70338,3.11765 2.30021,4.41022 -0.21671,0.69474 -3.23046,2.57807 -4.15344,2.32798 -2.08103,-0.61024 -3.06752,-3.2596 -2.9678,-3.72394 z"
       sodipodi:nodetypes="ssscs" />
    <path
       id="rect5-9-1"
       style="fill:#a796b8;fill-opacity:1;stroke-width:0.256209;stroke-linecap:round;stroke-linejoin:round"
       d="m 121.53578,155.5745 c 2.72438,-0.7067 6.33935,2.39834 6.45661,3.92949 0.10276,1.34241 -2.09129,5.07125 -3.86736,5.36327 -0.95461,0.15694 -4.98967,-2.30006 -5.2431,-3.54574 -0.51631,-2.83627 2.04274,-5.58852 2.65385,-5.74702 z"
       sodipodi:nodetypes="ssscs" />
    <path
       id="rect5-9-1-6"
       style="fill:#a796b8;fill-opacity:1;stroke-width:0.163833;stroke-linecap:round;stroke-linejoin:round"
       d="m 117.86907,165.79738 c 1.6032,0.81786 2.01514,3.83715 1.42157,4.61941 -0.52042,0.68581 -3.1522,1.53876 -4.12578,0.92488 -0.52328,-0.32996 -1.41116,-3.21747 -1.00386,-3.92093 0.95642,-1.57595 3.34846,-1.80683 3.70807,-1.62336 z"
       sodipodi:nodetypes="ssscs" />
    <path
       id="rect5-9-1-0"
       style="fill:#a796b8;fill-opacity:1;stroke-width:0.139838;stroke-linecap:round;stroke-linejoin:round"
       d="m 108.98326,161.18003 c 0.3552,-1.49453 2.77636,-2.44474 3.54479,-2.1101 0.67371,0.29339 1.91159,2.30428 1.59867,3.23549 -0.16825,0.50049 -2.38413,1.81891 -3.04968,1.62288 -1.49986,-0.47562 -2.17347,-2.41303 -2.09378,-2.74827 z"
       sodipodi:nodetypes="ssscs"
       inkscape:transform-center-x="-0.69510638"
       inkscape:transform-center-y="-2.4012766" />
  </g>
</svg>
