<?xml version="1.0" encoding="UTF-8" standalone="no"?>
<!-- Created with Inkscape (http://www.inkscape.org/) -->

<svg
   width="9.136425mm"
   height="8.6118135mm"
   viewBox="0 0 9.136425 8.6118135"
   version="1.1"
   id="svg1"
   sodipodi:docname="favicon.svg"
   inkscape:export-filename="..\..\..\..\..\..\toads\Pictures\favicon.png"
   inkscape:export-xdpi="96"
   inkscape:export-ydpi="96"
   inkscape:version="1.3 (0e150ed6c4, 2023-07-21)"
   xmlns:inkscape="http://www.inkscape.org/namespaces/inkscape"
   xmlns:sodipodi="http://sodipodi.sourceforge.net/DTD/sodipodi-0.dtd"
   xmlns="http://www.w3.org/2000/svg"
   xmlns:svg="http://www.w3.org/2000/svg">
  <sodipodi:namedview
     id="namedview1"
     pagecolor="#505050"
     bordercolor="#eeeeee"
     borderopacity="1"
     inkscape:showpageshadow="0"
     inkscape:pageopacity="0"
     inkscape:pagecheckerboard="0"
     inkscape:deskcolor="#505050"
     inkscape:document-units="mm"
     inkscape:zoom="18.756575"
     inkscape:cx="7.5706786"
     inkscape:cy="19.913017"
     inkscape:window-width="2560"
     inkscape:window-height="1417"
     inkscape:window-x="1912"
     inkscape:window-y="-8"
     inkscape:window-maximized="1"
     inkscape:current-layer="layer1" />
  <defs
     id="defs1" />
  <g
     inkscape:label="Στρώση 1"
     inkscape:groupmode="layer"
     id="layer1"
     transform="translate(-49.709378,-148.03927)">
    <path
       d="m 58.22454,155.96947 -0.897232,0.0147 0.04675,-4.50417 c 0.0037,-0.35584 0.03329,-0.79167 0.08878,-1.30754 l -0.0214,0.001 c -0.08911,0.30421 -0.168363,0.5224 -0.237778,0.6546 l -2.686151,5.20303 -0.440557,0.007 -0.02657,-0.0526 -2.547481,-5.02654 c -0.07365,-0.14841 -0.148273,-0.37656 -0.223865,-0.6843 l -0.0214,0.001 c 0.02581,0.26798 0.03558,0.70629 0.02932,1.31497 l -0.04667,4.49481 -0.870362,0.0143 0.0697,-6.71411 1.192723,-0.0196 2.315347,4.64317 c 0.178941,0.35593 0.294353,0.62242 0.34623,0.79946 l 0.0323,7.6e-4 c 0.157837,-0.37088 0.284259,-0.64759 0.379263,-0.83015 l 2.46072,-4.7031 1.128247,-0.0186 z"
       id="text1-5-0-9-8-8-3"
       style="font-size:11.2889px;font-family:'Segoe UI';-inkscape-font-specification:'Segoe UI';stroke:#910931;stroke-width:1.1027;stroke-linecap:round;stroke-linejoin:round;stroke-opacity:1"
       aria-label="M"
       sodipodi:nodetypes="ccscccccccccsccccccccccc" />
    <path
       d="m 58.189404,155.84955 -0.897231,0.0148 0.04677,-4.50415 c 0.0037,-0.35584 0.03329,-0.79167 0.08878,-1.30753 l -0.0214,0.001 c -0.08911,0.30419 -0.168364,0.52238 -0.237778,0.65461 l -2.686148,5.20303 -0.44056,0.007 -0.02657,-0.0526 -2.547483,-5.02656 c -0.07366,-0.14858 -0.148285,-0.37673 -0.223878,-0.68447 l -0.02139,10e-4 c 0.0258,0.26794 0.03558,0.70628 0.02933,1.31495 l -0.04667,4.4948 -0.870361,0.0143 0.0697,-6.71413 1.192724,-0.0196 2.315345,4.64315 c 0.178943,0.35594 0.294353,0.62243 0.346232,0.79947 l 0.0323,7.6e-4 c 0.157836,-0.37089 0.284259,-0.6476 0.379266,-0.83016 l 2.460716,-4.70309 1.128248,-0.0186 z"
       id="text1-5-0-9-8-5"
       style="font-size:11.2889px;font-family:'Segoe UI';-inkscape-font-specification:'Segoe UI';stroke:#a40a38;stroke-width:1.1027;stroke-linecap:round;stroke-linejoin:round;stroke-opacity:1"
       aria-label="M"
       sodipodi:nodetypes="ccscccccccccsccccccccccc" />
    <path
       d="m 58.177834,155.75001 -0.897223,0.0149 0.04677,-4.50417 c 0.0037,-0.35586 0.03329,-0.79169 0.08878,-1.30753 l -0.0214,10e-4 c -0.08911,0.3042 -0.168365,0.5224 -0.237779,0.65463 l -2.686148,5.20303 -0.440549,0.007 -0.02657,-0.0526 -2.547481,-5.02656 c -0.07366,-0.14859 -0.148288,-0.37675 -0.22388,-0.68447 l -0.0214,0.001 c 0.02579,0.26793 0.03558,0.70628 0.02932,1.31496 l -0.04667,4.4948 -0.870361,0.0143 0.0697,-6.71412 1.192725,-0.0196 2.315345,4.64315 c 0.178941,0.35596 0.294352,0.62245 0.346232,0.79948 l 0.0323,7.5e-4 c 0.157834,-0.37089 0.284259,-0.64759 0.379263,-0.83017 l 2.460718,-4.70308 1.128248,-0.0186 z"
       id="text1-5-0-9-5"
       style="font-size:11.2889px;font-family:'Segoe UI';-inkscape-font-specification:'Segoe UI';stroke:#bd0c41;stroke-width:1.1027;stroke-linecap:round;stroke-linejoin:round;stroke-opacity:1"
       aria-label="M"
       sodipodi:nodetypes="ccscccccccccsccccccccccc" />
    <path
       d="m 58.170653,155.63438 -0.897231,0.0148 0.04676,-4.50418 c 0.0037,-0.35583 0.03329,-0.79168 0.08878,-1.30755 l -0.0214,0.001 c -0.08911,0.30419 -0.168365,0.5224 -0.237779,0.65461 l -2.68615,5.20301 -0.440558,0.007 -0.02657,-0.0526 -2.547481,-5.02654 c -0.07366,-0.14859 -0.148285,-0.37675 -0.223875,-0.68445 l -0.0214,0.001 c 0.02579,0.26796 0.03558,0.7063 0.02933,1.31496 l -0.04667,4.49481 -0.870361,0.0143 0.0697,-6.71411 1.192724,-0.0196 2.315346,4.64316 c 0.178942,0.35594 0.294352,0.62243 0.346232,0.79949 l 0.0323,7.5e-4 c 0.15784,-0.37089 0.284259,-0.6476 0.379268,-0.83016 l 2.460717,-4.70307 1.12825,-0.0186 z"
       id="text1-5-0-6"
       style="font-size:11.2889px;font-family:'Segoe UI';-inkscape-font-specification:'Segoe UI';stroke:#d00e48;stroke-width:1.1027;stroke-linecap:round;stroke-linejoin:round;stroke-opacity:1"
       aria-label="M"
       sodipodi:nodetypes="ccscccccccccsccccccccccc" />
    <path
       d="m 58.150024,155.48753 -0.897232,0.0148 0.04677,-4.50416 c 0.0037,-0.35585 0.03329,-0.7917 0.08878,-1.30755 l -0.02139,0.001 c -0.08911,0.30417 -0.168366,0.5224 -0.23778,0.65463 l -2.68615,5.203 -0.440557,0.007 -0.02657,-0.0526 -2.547483,-5.02655 c -0.07366,-0.14859 -0.148287,-0.37675 -0.223876,-0.68444 l -0.0214,10e-4 c 0.0258,0.26794 0.03568,0.70629 0.02933,1.31496 l -0.04667,4.4948 -0.870364,0.0143 0.0697,-6.7141 1.192724,-0.0196 2.315346,4.64316 c 0.178942,0.35595 0.294354,0.62245 0.346234,0.79948 l 0.0323,7.5e-4 c 0.157837,-0.37087 0.284259,-0.64759 0.379265,-0.83016 l 2.460716,-4.70309 1.128249,-0.0186 z"
       id="text1-5-04"
       style="font-size:11.2889px;font-family:'Segoe UI';-inkscape-font-specification:'Segoe UI';stroke:#f0215f;stroke-width:1.1027;stroke-linecap:round;stroke-linejoin:round;stroke-opacity:1"
       aria-label="M"
       sodipodi:nodetypes="ccscccccccccsccccccccccc" />
    <path
       d="m 58.115479,155.30373 -0.89723,0.0148 0.04675,-4.50416 c 0.0037,-0.35583 0.03329,-0.79169 0.08878,-1.30755 l -0.0214,0.001 c -0.08911,0.30418 -0.168364,0.5224 -0.237778,0.65462 l -2.68615,5.20302 -0.440559,0.007 -0.02657,-0.0526 -2.54748,-5.02653 c -0.07366,-0.14863 -0.148288,-0.37675 -0.223876,-0.68448 l -0.02153,-1.1e-4 c 0.0258,0.26798 0.03558,0.70628 0.02932,1.31498 l -0.04667,4.4948 -0.87036,0.0143 0.0697,-6.71412 1.192724,-0.0196 2.315345,4.64313 c 0.178943,0.35596 0.294354,0.62245 0.346232,0.79948 l 0.0323,7.6e-4 c 0.157839,-0.37089 0.284261,-0.64761 0.379266,-0.83017 l 2.460718,-4.70309 1.12825,-0.0186 z"
       id="text1-6"
       style="font-size:11.2889px;font-family:'Segoe UI';-inkscape-font-specification:'Segoe UI';stroke:#f34b7d;stroke-width:1.1027;stroke-linecap:round;stroke-linejoin:round;stroke-opacity:1"
       aria-label="M"
       sodipodi:nodetypes="ccscccccccccsccccccccccc" />
  </g>
</svg>
