<?xml version="1.0" encoding="UTF-8" standalone="no"?>
<!-- Created with Inkscape (http://www.inkscape.org/) -->

<svg
   width="4.9270139mm"
   height="5.6331792mm"
   viewBox="0 0 4.9270139 5.6331792"
   version="1.1"
   id="svg1"
   sodipodi:docname="logo2_light.svg"
   inkscape:version="1.3 (0e150ed6c4, 2023-07-21)"
   xmlns:inkscape="http://www.inkscape.org/namespaces/inkscape"
   xmlns:sodipodi="http://sodipodi.sourceforge.net/DTD/sodipodi-0.dtd"
   xmlns="http://www.w3.org/2000/svg"
   xmlns:svg="http://www.w3.org/2000/svg">
  <sodipodi:namedview
     id="namedview1"
     pagecolor="#505050"
     bordercolor="#eeeeee"
     borderopacity="1"
     inkscape:showpageshadow="0"
     inkscape:pageopacity="0"
     inkscape:pagecheckerboard="0"
     inkscape:deskcolor="#d1d1d1"
     inkscape:document-units="mm"
     showguides="false"
     inkscape:zoom="32"
     inkscape:cx="40.421875"
     inkscape:cy="6.203125"
     inkscape:window-width="2560"
     inkscape:window-height="1369"
     inkscape:window-x="1912"
     inkscape:window-y="-8"
     inkscape:window-maximized="1"
     inkscape:current-layer="layer1" />
  <defs
     id="defs1" />
  <g
     inkscape:label="Στρώση 1"
     inkscape:groupmode="layer"
     id="layer1"
     transform="translate(-46.974783,-143.19218)">
    <path
       style="font-size:8.76902px;font-family:'Earth\'s Mightiest Bold';-inkscape-font-specification:'Earth\'s Mightiest Bold, ';fill:#cacaca;fill-opacity:1;fill-rule:evenodd;stroke-width:0.234632;stroke-linecap:round"
       d="m 49.595399,148.05258 c -0.04075,0.0681 -0.113053,0.10182 -0.216919,0.10116 -0.04039,-2.5e-4 -0.08075,-0.008 -0.121068,-0.0245 -0.04031,-0.0161 -0.08922,-0.0453 -0.146715,-0.0878 -0.04,-0.0791 -0.06854,-0.14241 -0.08562,-0.18985 -0.01707,-0.0474 -0.03129,-0.0896 -0.04266,-0.12648 l -0.0169,-0.079 -4e-5,0.008 c -0.0057,-0.0158 -0.01424,-0.0316 -0.02573,-0.0475 -0.0057,-0.0211 -0.01133,-0.0422 -0.01699,-0.0632 -0.02848,-0.0738 -0.05698,-0.14497 -0.08549,-0.2135 -0.02272,-0.0738 -0.04836,-0.13966 -0.07691,-0.19769 -0.03415,-0.0949 -0.07119,-0.18976 -0.111098,-0.28467 -0.03415,-0.0949 -0.06835,-0.17923 -0.1026,-0.25307 l -0.128211,-0.32421 -0.01249,2.47669 c -2.65e-4,0.0526 -0.02925,0.0787 -0.08696,0.0784 l -1.038732,-0.007 c -0.05194,-3.3e-4 -0.07778,-0.0268 -0.07751,-0.0794 0.0021,-0.41541 0.01002,-0.84919 0.02387,-1.30133 0.01962,-0.45737 0.04212,-0.91472 0.06751,-1.37205 0.02539,-0.45734 0.05362,-0.90677 0.08469,-1.34829 0.03687,-0.44674 0.116005,-0.90703 0.152649,-1.30645 7.9e-5,-0.0158 0.0088,-0.0289 0.02618,-0.0392 0.01739,-0.0157 0.03475,-0.0235 0.05206,-0.0234 l 0.648298,-0.004 c 0.09009,2.6e-4 0.136441,0.025 0.147828,0.0566 l 1.044436,2.30989 c 0.01243,-0.007 0.0029,-0.008 0.0087,-0.008 0.0058,-0.005 0.05211,-0.0457 0.0088,-0.0157 l -4e-5,0.008 1.059755,-2.44638 c 0.01171,-0.0315 0.05533,-0.0617 0.236116,-0.0557 l 0.518111,0.051 c 0.0577,3.7e-4 0.08643,0.0242 0.0862,0.0715 0.0211,0.39452 0.04494,0.81536 0.07153,1.26251 0.02661,0.44714 0.0503,0.89952 0.07107,1.35715 0.02655,0.45766 0.04445,0.91264 0.05371,1.36493 0.01503,0.45233 0.02151,0.8862 0.01942,1.30162 -2.65e-4,0.0526 -0.02925,0.0787 -0.08696,0.0784 l -1.030077,-0.007 c -0.0577,-3.7e-4 -0.08642,-0.0269 -0.08617,-0.0795 l 0.01236,-2.45303 -0.02624,0.055 -0.09638,0.22814 c -0.03497,0.0681 -0.06414,0.13106 -0.08752,0.18876 -0.02335,0.0525 -0.04962,0.11277 -0.07882,0.18092 l -0.07874,0.16513 0.0087,6e-5 c -0.0117,0.0315 -0.02922,0.0734 -0.05257,0.12587 -0.01755,0.0472 -0.04383,0.10751 -0.07883,0.18092 l 4.1e-5,-0.008 -0.298284,0.78689 z"
       id="text1-3-1"
       sodipodi:nodetypes="csccccccccccccccccccccccccccccccccccccsccccccccccccccc"
       inkscape:export-filename="favicon_light.svg"
       inkscape:export-xdpi="96"
       inkscape:export-ydpi="96" />
    <path
       style="font-size:8.76902px;font-family:'Earth\'s Mightiest Bold';-inkscape-font-specification:'Earth\'s Mightiest Bold, ';fill:#f6f6f6;fill-opacity:1;fill-rule:evenodd;stroke-width:0.249;stroke-linecap:round"
       d="m 49.665431,148.04938 q -0.06872,0.10231 -0.243937,0.10131 -0.06814,-3.8e-4 -0.136146,-0.0245 -0.068,-0.0241 -0.164991,-0.0879 -0.06746,-0.11887 -0.09627,-0.19013 -0.0288,-0.0712 -0.04796,-0.12667 l -0.01902,-0.0791 -4.6e-5,0.008 q -0.0096,-0.0237 -0.02894,-0.0476 -0.0096,-0.0317 -0.01911,-0.0633 -0.04804,-0.11086 -0.09614,-0.21382 -0.03832,-0.11081 -0.08649,-0.19798 -0.0576,-0.14252 -0.124935,-0.28509 -0.0576,-0.14252 -0.11538,-0.25344 l -0.14418,-0.32469 -0.01404,2.48035 q -4.47e-4,0.079 -0.09779,0.0785 l -1.168111,-0.007 q -0.08761,-4.9e-4 -0.08716,-0.0795 0.0035,-0.62404 0.02685,-1.30326 0.0331,-0.68707 0.07592,-1.37408 0.04283,-0.68702 0.09525,-1.35028 0.0622,-0.6711 0.12401,-1.27112 1.34e-4,-0.0237 0.02943,-0.0393 0.02934,-0.0235 0.05855,-0.0234 l 0.807943,0.005 q 0.06814,3.9e-4 0.08734,0.0479 l 1.174524,2.31331 q 4.6e-5,-0.008 0.0098,-0.008 0.0098,-0.008 0.0099,-0.0157 l -4.6e-5,0.008 1.191752,-2.45 q 0.01974,-0.0473 0.07814,-0.047 l 0.817677,0.005 q 0.09734,5.5e-4 0.09694,0.0716 0.03559,0.59266 0.08045,1.26438 0.04487,0.6717 0.07992,1.35916 0.04478,0.68751 0.0604,1.36695 0.02536,0.6795 0.02183,1.30355 -4.47e-4,0.079 -0.09779,0.0785 l -1.158378,-0.007 q -0.09734,-5.5e-4 -0.0969,-0.0796 l 0.01391,-2.45667 -0.02952,0.0551 -0.108374,0.22847 q -0.05898,0.10237 -0.09842,0.18904 -0.03939,0.0788 -0.08863,0.18119 l -0.08855,0.16538 0.0098,6e-5 q -0.01974,0.0473 -0.05912,0.12605 -0.02961,0.0709 -0.08864,0.18119 l 4.6e-5,-0.008 -0.335437,0.78805 z"
       id="text1-3" />
  </g>
</svg>
