<?xml version="1.0" encoding="UTF-8" standalone="no"?>
<!-- Created with Inkscape (http://www.inkscape.org/) -->

<svg
   width="63.681267mm"
   height="41.471478mm"
   viewBox="0 0 63.681267 41.471478"
   version="1.1"
   id="svg1"
   inkscape:export-filename="sets.svg"
   inkscape:export-xdpi="96"
   inkscape:export-ydpi="96"
   xmlns:inkscape="http://www.inkscape.org/namespaces/inkscape"
   xmlns:sodipodi="http://sodipodi.sourceforge.net/DTD/sodipodi-0.dtd"
   xmlns="http://www.w3.org/2000/svg"
   xmlns:svg="http://www.w3.org/2000/svg">
  <sodipodi:namedview
     id="namedview1"
     pagecolor="#505050"
     bordercolor="#eeeeee"
     borderopacity="1"
     inkscape:showpageshadow="0"
     inkscape:pageopacity="0"
     inkscape:pagecheckerboard="0"
     inkscape:deskcolor="#505050"
     inkscape:document-units="mm" />
  <defs
     id="defs1" />
  <g
     inkscape:label="Στρώση 1"
     inkscape:groupmode="layer"
     id="layer1"
     transform="translate(-35.794911,-107.02852)">
    <ellipse
       style="fill:#cccccc;fill-opacity:0;stroke:#000000;stroke-width:0.211016;stroke-linecap:round;stroke-linejoin:round;stroke-dasharray:none"
       id="path1"
       cx="45.444378"
       cy="138.57718"
       rx="9.5439558"
       ry="9.8171902" />
    <ellipse
       style="fill:#cccccc;fill-opacity:0;stroke:#000000;stroke-width:0.211016;stroke-linecap:round;stroke-linejoin:round;stroke-dasharray:none"
       id="path1-6"
       cx="56.860275"
       cy="138.57718"
       rx="9.5439558"
       ry="9.8171902" />
    <path
       id="path1-8"
       style="fill:#cccccc;fill-opacity:1;stroke:#000000;stroke-width:0.211016;stroke-linecap:round;stroke-linejoin:round;stroke-dasharray:none"
       d="m 66.713241,109.0998 a 9.5439558,9.8171902 0 0 0 -0.561206,0.43253 9.5439558,9.8171902 0 0 0 -0.963249,0.99012 9.5439558,9.8171902 0 0 0 -0.815971,1.12138 9.5439558,9.8171902 0 0 0 -0.652673,1.22938 9.5439558,9.8171902 0 0 0 -0.475424,1.31259 9.5439558,9.8171902 0 0 0 -0.289904,1.36839 9.5439558,9.8171902 0 0 0 -0.09715,1.39733 9.5439558,9.8171902 0 0 0 0.09715,1.39681 9.5439558,9.8171902 0 0 0 0.289904,1.36891 9.5439558,9.8171902 0 0 0 0.475424,1.31258 9.5439558,9.8171902 0 0 0 0.652673,1.22938 9.5439558,9.8171902 0 0 0 0.815971,1.12138 9.5439558,9.8171902 0 0 0 0.963249,0.99012 9.5439558,9.8171902 0 0 0 0.541569,0.41755 9.5439558,9.8171902 0 0 0 3.836458,-7.83673 9.5439558,9.8171902 0 0 0 -3.816821,-7.85172 z" />
    <path
       id="path3"
       style="fill:#cccccc;fill-opacity:1;stroke:#000000;stroke-width:0.211016;stroke-linecap:round;stroke-linejoin:round;stroke-dasharray:none"
       d="m 60.985942,107.13403 a 9.5439558,9.8171902 0 0 0 -9.544121,9.81749 9.5439558,9.8171902 0 0 0 9.544121,9.81697 9.5439558,9.8171902 0 0 0 5.707662,-1.98024 9.5439558,9.8171902 0 0 1 -0.541569,-0.41755 9.5439558,9.8171902 0 0 1 -0.963249,-0.99012 9.5439558,9.8171902 0 0 1 -0.815971,-1.12138 9.5439558,9.8171902 0 0 1 -0.652673,-1.22938 9.5439558,9.8171902 0 0 1 -0.475424,-1.31258 9.5439558,9.8171902 0 0 1 -0.289904,-1.36891 9.5439558,9.8171902 0 0 1 -0.09715,-1.39681 9.5439558,9.8171902 0 0 1 0.09715,-1.39733 9.5439558,9.8171902 0 0 1 0.289904,-1.36839 9.5439558,9.8171902 0 0 1 0.475424,-1.31259 9.5439558,9.8171902 0 0 1 0.652673,-1.22938 9.5439558,9.8171902 0 0 1 0.815971,-1.12138 9.5439558,9.8171902 0 0 1 0.963249,-0.99012 9.5439558,9.8171902 0 0 1 0.561206,-0.43253 9.5439558,9.8171902 0 0 0 -5.727299,-1.96577 z" />
    <path
       id="path4"
       style="fill:#cccccc;fill-opacity:1;stroke:#000000;stroke-width:0.211016;stroke-linecap:round;stroke-linejoin:round;stroke-dasharray:none"
       d="m 72.401782,107.13403 a 9.5439558,9.8171902 0 0 0 -5.688541,1.96577 9.5439558,9.8171902 0 0 1 0.327628,0.26303 9.5439558,9.8171902 0 0 1 0.3545,0.31471 9.5439558,9.8171902 0 0 1 0.339515,0.33228 9.5439558,9.8171902 0 0 1 0.322977,0.34882 9.5439558,9.8171902 0 0 1 0.305925,0.36483 9.5439558,9.8171902 0 0 1 0.288354,0.37983 9.5439558,9.8171902 0 0 1 0.269235,0.39429 9.5439558,9.8171902 0 0 1 0.25063,0.40669 9.5439558,9.8171902 0 0 1 0.230994,0.41961 9.5439558,9.8171902 0 0 1 0.21084,0.43047 9.5439558,9.8171902 0 0 1 0.189652,0.44028 9.5439558,9.8171902 0 0 1 0.168465,0.44959 9.5439558,9.8171902 0 0 1 0.147278,0.45733 9.5439558,9.8171902 0 0 1 0.125057,0.46457 9.5439558,9.8171902 0 0 1 0.10232,0.47026 9.5439558,9.8171902 0 0 1 0.0801,0.47491 9.5439558,9.8171902 0 0 1 0.05736,0.478 9.5439558,9.8171902 0 0 1 0.03462,0.48059 9.5439558,9.8171902 0 0 1 0.01137,0.48163 9.5439558,9.8171902 0 0 1 -0.09715,1.39733 9.5439558,9.8171902 0 0 1 -0.289388,1.36839 9.5439558,9.8171902 0 0 1 -0.47594,1.31258 9.5439558,9.8171902 0 0 1 -0.652673,1.22938 9.5439558,9.8171902 0 0 1 -0.815971,1.12138 9.5439558,9.8171902 0 0 1 -0.962732,0.99012 9.5439558,9.8171902 0 0 1 -0.542086,0.41755 9.5439558,9.8171902 0 0 0 5.707662,1.98024 9.5439558,9.8171902 0 0 0 9.544121,-9.81697 9.5439558,9.8171902 0 0 0 -9.544121,-9.81749 z" />
    <path
       id="path1-5"
       style="fill:#cccccc;fill-opacity:1;stroke:#000000;stroke-width:0.211016;stroke-linecap:round;stroke-linejoin:round;stroke-dasharray:none"
       d="m 78.410712,128.76003 a 9.5439558,9.8171902 0 0 0 -9.543604,9.81697 9.5439558,9.8171902 0 0 0 9.543604,9.81749 9.5439558,9.8171902 0 0 0 5.708178,-1.98076 9.5439558,9.8171902 0 0 0 5.708179,1.98076 9.5439558,9.8171902 0 0 0 9.543604,-9.81749 9.5439558,9.8171902 0 0 0 -9.543604,-9.81697 9.5439558,9.8171902 0 0 0 -5.688542,1.96577 9.5439558,9.8171902 0 0 0 -5.727815,-1.96577 z" />
    <path
       style="fill:#e8ffa1;fill-opacity:1;stroke:#000000;stroke-width:0.0225088;stroke-linecap:round;stroke-linejoin:round;stroke-dasharray:none"
       d="m 50.857062,146.0494 c -1.720617,-1.45739 -2.907954,-3.56138 -3.283961,-5.81925 -0.101486,-0.6094 -0.127799,-0.9435 -0.128693,-1.63399 -0.0013,-0.96789 0.08674,-1.66994 0.321236,-2.56282 0.17404,-0.66271 0.369033,-1.1751 0.710168,-1.86615 0.491617,-0.99589 1.033248,-1.74961 1.824183,-2.5385 0.342453,-0.34157 0.812572,-0.76173 0.852299,-0.76173 0.03454,0 0.471192,0.38418 0.781479,0.68757 0.37452,0.3662 0.646472,0.67219 0.935522,1.05261 1.290669,1.69868 2.001774,3.81857 2.001774,5.96752 0,2.91571 -1.280147,5.6797 -3.488341,7.53175 -0.11538,0.0968 -0.218972,0.17595 -0.230203,0.17595 -0.01124,0 -0.14419,-0.10483 -0.295463,-0.23296 z"
       id="path2" />
    <circle
       style="fill:#000000;fill-opacity:1;stroke:#000000;stroke-width:0.277;stroke-linecap:round;stroke-linejoin:round;stroke-dasharray:none"
       id="path5"
       cx="55.47525"
       cy="112.61072"
       r="0.38140815" />
    <circle
       style="fill:#000000;fill-opacity:1;stroke:#000000;stroke-width:0.277;stroke-linecap:round;stroke-linejoin:round;stroke-dasharray:none"
       id="path5-4"
       cx="57.137646"
       cy="116.95126"
       r="0.38140815" />
    <circle
       style="fill:#000000;fill-opacity:1;stroke:#000000;stroke-width:0.277;stroke-linecap:round;stroke-linejoin:round;stroke-dasharray:none"
       id="path5-3"
       cx="55.47525"
       cy="120.52531"
       r="0.38140815" />
    <circle
       style="fill:#000000;fill-opacity:1;stroke:#000000;stroke-width:0.277;stroke-linecap:round;stroke-linejoin:round;stroke-dasharray:none"
       id="path5-5"
       cx="60.79921"
       cy="123.54147"
       r="0.38140815" />
    <circle
       style="fill:#000000;fill-opacity:1;stroke:#000000;stroke-width:0.277;stroke-linecap:round;stroke-linejoin:round;stroke-dasharray:none"
       id="path5-0"
       cx="61.159077"
       cy="112.61072"
       r="0.38140815" />
    <circle
       style="fill:#000000;fill-opacity:1;stroke:#000000;stroke-width:0.277;stroke-linecap:round;stroke-linejoin:round;stroke-dasharray:none"
       id="path5-42"
       cx="60.79921"
       cy="118.07821"
       r="0.38140815" />
    <circle
       style="fill:#000000;fill-opacity:1;stroke:#000000;stroke-width:0.277;stroke-linecap:round;stroke-linejoin:round;stroke-dasharray:none"
       id="path5-2"
       cx="66.613457"
       cy="120.52531"
       r="0.38140815" />
    <circle
       style="fill:#000000;fill-opacity:1;stroke:#000000;stroke-width:0.277;stroke-linecap:round;stroke-linejoin:round;stroke-dasharray:none"
       id="path5-1"
       cx="66.693863"
       cy="114.35619"
       r="0.38140815" />
    <circle
       style="fill:#000000;fill-opacity:1;stroke:#000000;stroke-width:0.277;stroke-linecap:round;stroke-linejoin:round;stroke-dasharray:none"
       id="path5-41"
       cx="71.881882"
       cy="124.06138"
       r="0.38140815" />
    <circle
       style="fill:#000000;fill-opacity:1;stroke:#000000;stroke-width:0.277;stroke-linecap:round;stroke-linejoin:round;stroke-dasharray:none"
       id="path5-11"
       cx="77.868126"
       cy="119.11803"
       r="0.38140815" />
    <circle
       style="fill:#000000;fill-opacity:1;stroke:#000000;stroke-width:0.277;stroke-linecap:round;stroke-linejoin:round;stroke-dasharray:none"
       id="path5-418"
       cx="72.9217"
       cy="116.43135"
       r="0.38140815" />
    <circle
       style="fill:#000000;fill-opacity:1;stroke:#000000;stroke-width:0.277;stroke-linecap:round;stroke-linejoin:round;stroke-dasharray:none"
       id="path5-21"
       cx="75.165726"
       cy="111.5709"
       r="0.38140815" />
    <circle
       style="fill:#000000;fill-opacity:1;stroke:#000000;stroke-width:0.277;stroke-linecap:round;stroke-linejoin:round;stroke-dasharray:none"
       id="path5-6"
       cx="39.806023"
       cy="133.9706"
       r="0.38140815" />
    <circle
       style="fill:#000000;fill-opacity:1;stroke:#000000;stroke-width:0.277;stroke-linecap:round;stroke-linejoin:round;stroke-dasharray:none"
       id="path5-4-2"
       cx="41.468418"
       cy="138.31114"
       r="0.38140815" />
    <circle
       style="fill:#000000;fill-opacity:1;stroke:#000000;stroke-width:0.277;stroke-linecap:round;stroke-linejoin:round;stroke-dasharray:none"
       id="path5-3-8"
       cx="39.806023"
       cy="141.88519"
       r="0.38140815" />
    <circle
       style="fill:#000000;fill-opacity:1;stroke:#000000;stroke-width:0.277;stroke-linecap:round;stroke-linejoin:round;stroke-dasharray:none"
       id="path5-5-2"
       cx="45.129978"
       cy="144.90135"
       r="0.38140815" />
    <circle
       style="fill:#000000;fill-opacity:1;stroke:#000000;stroke-width:0.277;stroke-linecap:round;stroke-linejoin:round;stroke-dasharray:none"
       id="path5-0-2"
       cx="45.489849"
       cy="133.9706"
       r="0.38140815" />
    <circle
       style="fill:#000000;fill-opacity:1;stroke:#000000;stroke-width:0.277;stroke-linecap:round;stroke-linejoin:round;stroke-dasharray:none"
       id="path5-42-0"
       cx="45.129978"
       cy="139.43808"
       r="0.38140815" />
    <circle
       style="fill:#000000;fill-opacity:1;stroke:#000000;stroke-width:0.277;stroke-linecap:round;stroke-linejoin:round;stroke-dasharray:none"
       id="path5-2-2"
       cx="50.944225"
       cy="141.88519"
       r="0.38140815" />
    <circle
       style="fill:#000000;fill-opacity:1;stroke:#000000;stroke-width:0.277;stroke-linecap:round;stroke-linejoin:round;stroke-dasharray:none"
       id="path5-1-3"
       cx="51.024632"
       cy="135.71608"
       r="0.38140815" />
    <circle
       style="fill:#000000;fill-opacity:1;stroke:#000000;stroke-width:0.277;stroke-linecap:round;stroke-linejoin:round;stroke-dasharray:none"
       id="path5-41-0"
       cx="56.21265"
       cy="145.42125"
       r="0.38140815" />
    <circle
       style="fill:#000000;fill-opacity:1;stroke:#000000;stroke-width:0.277;stroke-linecap:round;stroke-linejoin:round;stroke-dasharray:none"
       id="path5-11-4"
       cx="62.198895"
       cy="140.47791"
       r="0.38140815" />
    <circle
       style="fill:#000000;fill-opacity:1;stroke:#000000;stroke-width:0.277;stroke-linecap:round;stroke-linejoin:round;stroke-dasharray:none"
       id="path5-418-3"
       cx="57.252468"
       cy="137.79123"
       r="0.38140815" />
    <circle
       style="fill:#000000;fill-opacity:1;stroke:#000000;stroke-width:0.277;stroke-linecap:round;stroke-linejoin:round;stroke-dasharray:none"
       id="path5-21-9"
       cx="59.496494"
       cy="132.93079"
       r="0.38140815" />
    <circle
       style="fill:#000000;fill-opacity:1;stroke:#000000;stroke-width:0.277;stroke-linecap:round;stroke-linejoin:round;stroke-dasharray:none"
       id="path5-61"
       cx="73.351555"
       cy="133.45068"
       r="0.38140815" />
    <circle
       style="fill:#000000;fill-opacity:1;stroke:#000000;stroke-width:0.277;stroke-linecap:round;stroke-linejoin:round;stroke-dasharray:none"
       id="path5-4-5"
       cx="75.013947"
       cy="137.79123"
       r="0.38140815" />
    <circle
       style="fill:#000000;fill-opacity:1;stroke:#000000;stroke-width:0.277;stroke-linecap:round;stroke-linejoin:round;stroke-dasharray:none"
       id="path5-3-4"
       cx="73.351555"
       cy="141.36526"
       r="0.38140815" />
    <circle
       style="fill:#000000;fill-opacity:1;stroke:#000000;stroke-width:0.277;stroke-linecap:round;stroke-linejoin:round;stroke-dasharray:none"
       id="path5-5-3"
       cx="78.675514"
       cy="144.38144"
       r="0.38140815" />
    <circle
       style="fill:#000000;fill-opacity:1;stroke:#000000;stroke-width:0.277;stroke-linecap:round;stroke-linejoin:round;stroke-dasharray:none"
       id="path5-0-9"
       cx="79.035378"
       cy="133.45068"
       r="0.38140815" />
    <circle
       style="fill:#000000;fill-opacity:1;stroke:#000000;stroke-width:0.277;stroke-linecap:round;stroke-linejoin:round;stroke-dasharray:none"
       id="path5-42-6"
       cx="78.675514"
       cy="138.91817"
       r="0.38140815" />
    <circle
       style="fill:#000000;fill-opacity:1;stroke:#000000;stroke-width:0.277;stroke-linecap:round;stroke-linejoin:round;stroke-dasharray:none"
       id="path5-2-9"
       cx="84.489761"
       cy="141.36526"
       r="0.38140815" />
    <circle
       style="fill:#000000;fill-opacity:1;stroke:#000000;stroke-width:0.277;stroke-linecap:round;stroke-linejoin:round;stroke-dasharray:none"
       id="path5-1-5"
       cx="84.570168"
       cy="135.19615"
       r="0.38140815" />
    <circle
       style="fill:#000000;fill-opacity:1;stroke:#000000;stroke-width:0.277;stroke-linecap:round;stroke-linejoin:round;stroke-dasharray:none"
       id="path5-41-7"
       cx="89.758186"
       cy="144.90134"
       r="0.38140815" />
    <circle
       style="fill:#000000;fill-opacity:1;stroke:#000000;stroke-width:0.277;stroke-linecap:round;stroke-linejoin:round;stroke-dasharray:none"
       id="path5-11-7"
       cx="95.744431"
       cy="139.95799"
       r="0.38140815" />
    <circle
       style="fill:#000000;fill-opacity:1;stroke:#000000;stroke-width:0.277;stroke-linecap:round;stroke-linejoin:round;stroke-dasharray:none"
       id="path5-418-1"
       cx="90.798004"
       cy="137.27132"
       r="0.38140815" />
    <circle
       style="fill:#000000;fill-opacity:1;stroke:#000000;stroke-width:0.277;stroke-linecap:round;stroke-linejoin:round;stroke-dasharray:none"
       id="path5-21-1"
       cx="93.04203"
       cy="132.41086"
       r="0.38140815" />
  </g>
</svg>
